<svg width="15" height="21" viewBox="0 0 15 21" fill="none" xmlns="http://www.w3.org/2000/svg">
<path d="M1.5 5.04201V15.5403C1.5 17.0467 1.5 17.7998 1.70412 18.2607C2.08245 19.1151 2.91157 19.606 3.76367 19.4806C4.2234 19.4129 4.78964 18.9951 5.9221 18.1594L5.92481 18.1574C6.37368 17.8262 6.59815 17.6606 6.83295 17.5687C7.26421 17.4 7.73476 17.4 8.16602 17.5687C8.40129 17.6608 8.62664 17.8271 9.07732 18.1596C10.2098 18.9952 10.7767 19.4127 11.2364 19.4804C12.0885 19.6059 12.9176 19.1151 13.2959 18.2607C13.5 17.7998 13.5 17.0465 13.5 15.5403V5.03837C13.5 3.80105 13.5 3.18147 13.2822 2.70841C13.0905 2.29189 12.7837 1.9535 12.4074 1.74127C11.9796 1.5 11.4203 1.5 10.3002 1.5H4.7002C3.58009 1.5 3.01962 1.5 2.5918 1.74127C2.21547 1.9535 1.90973 2.29189 1.71799 2.70841C1.5 3.18193 1.5 3.80227 1.5 5.04201Z" fill="#F77B4F" stroke="#303348" stroke-width="3" stroke-linecap="round" stroke-linejoin="round"/>
</svg>
