<svg width="42" height="39" viewBox="0 0 42 39" fill="none" xmlns="http://www.w3.org/2000/svg">
<g filter="url(#filter0_d_716_300)">
<path d="M25.519 18.435L16.9502 13.1288L12.8791 19.7397L6.51992 15.7722L9.27376 11.3583L5.9978 9.31443L8.75164 4.90056L12.0276 6.94445L15.1119 2.00093L21.4711 5.96848L16.9502 13.1288L25.519 18.435L29.9501 11.2586L35.7312 14.8654L32.6469 19.809L35.7301 21.7326L32.9763 26.1465L29.893 24.2228L27.1392 28.6367L21.3581 25.0298L25.519 18.435Z" fill="#F77B4F"/>
<path d="M16.9502 13.1288L25.519 18.435M16.9502 13.1288L12.8791 19.7397L6.51992 15.7722L9.27376 11.3583L5.9978 9.31443L8.75164 4.90056L12.0276 6.94445L15.1119 2.00093L21.4711 5.96848L16.9502 13.1288ZM25.519 18.435L29.9501 11.2586L35.7312 14.8654L32.6469 19.809L35.7301 21.7326L32.9763 26.1465L29.893 24.2228L27.1392 28.6367L21.3581 25.0298L25.519 18.435Z" stroke="#303348" stroke-width="4" stroke-linejoin="round"/>
</g>
<defs>
<filter id="filter0_d_716_300" x="0" y="0" width="41.7344" height="38.6367" filterUnits="userSpaceOnUse" color-interpolation-filters="sRGB">
<feFlood flood-opacity="0" result="BackgroundImageFix"/>
<feColorMatrix in="SourceAlpha" type="matrix" values="0 0 0 0 0 0 0 0 0 0 0 0 0 0 0 0 0 0 127 0" result="hardAlpha"/>
<feOffset dy="4"/>
<feGaussianBlur stdDeviation="2"/>
<feComposite in2="hardAlpha" operator="out"/>
<feColorMatrix type="matrix" values="0 0 0 0 0 0 0 0 0 0 0 0 0 0 0 0 0 0 0.12 0"/>
<feBlend mode="normal" in2="BackgroundImageFix" result="effect1_dropShadow_716_300"/>
<feBlend mode="normal" in="SourceGraphic" in2="effect1_dropShadow_716_300" result="shape"/>
</filter>
</defs>
</svg>
