<svg width="31" height="40" viewBox="0 0 31 40" fill="none" xmlns="http://www.w3.org/2000/svg">
<g filter="url(#filter0_d_716_228)">
<path fill-rule="evenodd" clip-rule="evenodd" d="M14.3101 29.4547C11.7604 27.4622 6 17.2513 6 10.9669C6 8.58868 7.0009 6.30826 8.7825 4.62658C10.5641 2.9449 12.9806 2 15.5002 2C18.0197 2 20.4359 2.94476 22.2176 4.62644C23.9992 6.30812 25 8.58925 25 10.9675C25 17.2519 19.2399 27.4624 16.6902 29.4549C16.3239 29.7411 16.1406 29.884 15.8678 29.9573C15.6558 30.0142 15.3439 30.0142 15.1319 29.9573C14.8596 29.8841 14.675 29.7398 14.3101 29.4547ZM12.3473 10.1685C12.3473 11.8185 13.7585 13.156 15.4994 13.156C17.2402 13.156 18.6515 11.8185 18.6515 10.1685C18.6515 8.5186 17.2402 7.18106 15.4994 7.18106C13.7585 7.18106 12.3473 8.5186 12.3473 10.1685Z" fill="#F77B4F"/>
<path fill-rule="evenodd" clip-rule="evenodd" d="M14.3101 29.4547C11.7604 27.4622 6 17.2513 6 10.9669C6 8.58868 7.0009 6.30826 8.7825 4.62658C10.5641 2.9449 12.9806 2 15.5002 2C18.0197 2 20.4359 2.94476 22.2176 4.62644C23.9992 6.30812 25 8.58925 25 10.9675C25 17.2519 19.2399 27.4624 16.6902 29.4549C16.3239 29.7411 16.1406 29.884 15.8678 29.9573C15.6558 30.0142 15.3439 30.0142 15.1319 29.9573C14.8596 29.8841 14.675 29.7398 14.3101 29.4547ZM12.3473 10.1685C12.3473 11.8185 13.7585 13.156 15.4994 13.156C17.2402 13.156 18.6515 11.8185 18.6515 10.1685C18.6515 8.5186 17.2402 7.18106 15.4994 7.18106C13.7585 7.18106 12.3473 8.5186 12.3473 10.1685Z" stroke="#303348" stroke-width="4" stroke-linecap="round" stroke-linejoin="round"/>
</g>
<defs>
<filter id="filter0_d_716_228" x="0" y="0" width="31" height="40" filterUnits="userSpaceOnUse" color-interpolation-filters="sRGB">
<feFlood flood-opacity="0" result="BackgroundImageFix"/>
<feColorMatrix in="SourceAlpha" type="matrix" values="0 0 0 0 0 0 0 0 0 0 0 0 0 0 0 0 0 0 127 0" result="hardAlpha"/>
<feOffset dy="4"/>
<feGaussianBlur stdDeviation="2"/>
<feComposite in2="hardAlpha" operator="out"/>
<feColorMatrix type="matrix" values="0 0 0 0 0 0 0 0 0 0 0 0 0 0 0 0 0 0 0.12 0"/>
<feBlend mode="normal" in2="BackgroundImageFix" result="effect1_dropShadow_716_228"/>
<feBlend mode="normal" in="SourceGraphic" in2="effect1_dropShadow_716_228" result="shape"/>
</filter>
</defs>
</svg>
