<svg width="17" height="18" viewBox="0 0 17 18" fill="none" xmlns="http://www.w3.org/2000/svg">
<path d="M1.5 14.1637V3.49706C1.5 2.6175 1.5 2.17722 1.68509 1.91698C1.84664 1.68985 2.09564 1.54072 2.37207 1.50507C2.68868 1.46423 3.07701 1.67133 3.85254 2.08495L13.8525 7.41829L13.8562 7.4199C14.7132 7.87699 15.142 8.10565 15.2826 8.41041C15.4053 8.67627 15.4053 8.98316 15.2826 9.24901C15.1418 9.5542 14.712 9.78379 13.8525 10.2422L3.85254 15.5755C3.07645 15.9894 2.6888 16.1957 2.37207 16.1549C2.09564 16.1192 1.84664 15.9701 1.68509 15.743C1.5 15.4828 1.5 15.0433 1.5 14.1637Z" fill="#F77B4F" stroke="#303348" stroke-width="3" stroke-linecap="round" stroke-linejoin="round"/>
</svg>
