<svg width="42" height="40" viewBox="0 0 42 40" fill="none" xmlns="http://www.w3.org/2000/svg">
<g filter="url(#filter0_d_716_302)">
<path fill-rule="evenodd" clip-rule="evenodd" d="M32.9802 11.1282L33.5298 11.4307L33.5324 11.432C34.4265 11.9242 34.8739 12.1705 35.2 12.5206C35.4889 12.8306 35.7079 13.1984 35.8422 13.5986C35.9939 14.0509 35.9952 14.5578 35.9975 15.5723L35.9995 16.425C36.0018 17.4344 36.003 17.9421 35.8524 18.3949C35.7185 18.7978 35.4994 19.1672 35.2089 19.4791C34.8805 19.8317 34.4284 20.0797 33.5257 20.5747L32.9832 20.8723L32.9803 20.8736C32.8979 20.9188 32.8564 20.9415 32.8161 20.9653C32.4037 21.2087 32.0564 21.5465 31.8032 21.9502C31.7782 21.9902 31.7532 22.0314 31.7049 22.1141C31.6568 22.1965 31.6325 22.2382 31.6101 22.2796C31.3833 22.6981 31.2614 23.1649 31.2543 23.6397C31.2536 23.6867 31.2538 23.7342 31.2554 23.8297L31.2665 24.4823C31.2836 25.483 31.2921 25.9871 31.1499 26.4393C31.0232 26.8422 30.8112 27.2136 30.528 27.5291C30.2087 27.8848 29.7661 28.139 28.8834 28.646L28.1406 29.0726C27.251 29.5836 26.805 29.8397 26.3316 29.9375C25.9123 30.0242 25.4793 30.0204 25.0613 29.9276C24.5887 29.8227 24.1469 29.5604 23.2625 29.035L22.6981 28.6997C22.6333 28.6612 22.5965 28.6393 22.5597 28.619C22.1414 28.3882 21.6729 28.2601 21.1943 28.2449C21.1461 28.2434 21.0972 28.2434 20.9991 28.2434C20.9012 28.2434 20.8522 28.2434 20.8041 28.2449C20.3266 28.2601 19.8609 28.3877 19.4433 28.6175C19.4012 28.6407 19.3587 28.6656 19.2747 28.7154L18.7437 29.03C17.863 29.5519 17.4221 29.8132 16.9515 29.9177C16.5352 30.0102 16.1038 30.0135 15.6859 29.9279C15.2136 29.8312 14.769 29.5778 13.8794 29.0704L13.1385 28.648C12.2464 28.1392 11.8001 27.8847 11.4782 27.5277C11.1934 27.2118 10.9804 26.8397 10.8529 26.4357C10.7088 25.9789 10.7164 25.4689 10.7338 24.4501L10.7441 23.8449C10.7459 23.7425 10.7466 23.6915 10.7457 23.6412C10.7377 23.1749 10.6199 22.7167 10.3998 22.3043C10.3809 22.269 10.3604 22.2336 10.327 22.1761L10.2983 22.1264C10.2462 22.0364 10.2202 21.9914 10.193 21.9481C9.94201 21.5467 9.59776 21.21 9.18913 20.9665C9.15271 20.9448 9.11499 20.9241 9.05149 20.8892L9.00744 20.865L8.46972 20.5689C7.57386 20.0757 7.1271 19.8295 6.80061 19.4791C6.51176 19.1691 6.29393 18.8013 6.15968 18.4011C6.00793 17.9488 6.00474 17.4419 6.00241 16.4274L6.00049 15.5926C5.99815 14.5713 5.99802 14.0606 6.14943 13.6051C6.28338 13.2022 6.50281 12.8322 6.79328 12.5204C7.12163 12.1678 7.57288 11.9201 8.47558 11.425L9.01814 11.1275L9.06018 11.1044C9.1181 11.0727 9.15298 11.0536 9.18638 11.0339C9.59875 10.7906 9.94572 10.453 10.1989 10.0493C10.2182 10.0186 10.2364 9.9872 10.2658 9.93675L10.2956 9.8855C10.3439 9.80282 10.368 9.76143 10.3905 9.72005C10.6172 9.30154 10.7411 8.83503 10.7482 8.36021C10.7486 8.33302 10.7479 8.30567 10.7468 8.26892C10.7461 8.24222 10.7452 8.21047 10.7445 8.1703L10.7338 7.53968C10.7165 6.52434 10.7089 6.01639 10.8521 5.56089C10.9788 5.15792 11.1906 4.78635 11.4738 4.47085C11.793 4.11531 12.2351 3.86137 13.1172 3.35473L13.1253 3.34982L13.8571 2.92952L13.8611 2.92778C14.7512 2.41653 15.1963 2.1609 15.6698 2.06303C16.0891 1.97634 16.5218 1.97891 16.9398 2.07173C17.4123 2.17664 17.8551 2.4397 18.7393 2.96505L19.2737 3.2825L19.3184 3.30908C19.3741 3.34226 19.4077 3.36229 19.4416 3.381C19.8599 3.61171 20.327 3.73944 20.8056 3.75468C20.8536 3.75621 20.9046 3.75621 21.0019 3.75621C21.0998 3.75621 21.1488 3.75621 21.1969 3.75468C21.6745 3.73951 22.1406 3.61247 22.5582 3.38271C22.6003 3.35956 22.6428 3.33448 22.7267 3.28473L23.2577 2.97012L23.2627 2.96776C24.1409 2.44735 24.5803 2.18699 25.0502 2.0826C25.4665 1.99011 25.8977 1.98615 26.3155 2.07173C26.7878 2.16846 27.2328 2.42221 28.1224 2.92952L28.8634 3.35209C29.7555 3.86082 30.201 4.1155 30.523 4.4725C30.8077 4.78832 31.021 5.16047 31.1485 5.56452C31.292 6.0194 31.2834 6.52626 31.2662 7.53684L31.2554 8.16835C31.2538 8.26512 31.2536 8.31379 31.2544 8.36142C31.2617 8.83528 31.384 9.30083 31.6101 9.71859C31.6328 9.76055 31.6575 9.80293 31.7063 9.88657L31.7411 9.9464C31.7683 9.99312 31.786 10.0237 31.8045 10.0531C32.0565 10.4546 32.4019 10.7903 32.8117 11.0332C32.8529 11.0576 32.8949 11.0812 32.9802 11.1282ZM14.9981 16.0001C14.9981 19.2807 17.6855 21.9401 21.0005 21.9401C24.3155 21.9401 27.0028 19.2807 27.0028 16.0001C27.0028 12.7195 24.3155 10.0601 21.0005 10.0601C17.6855 10.0601 14.9981 12.7195 14.9981 16.0001Z" fill="#F77B4F"/>
<path d="M10.327 22.1761C10.3184 22.1612 10.3088 22.1447 10.2983 22.1264C10.2462 22.0364 10.2202 21.9914 10.193 21.9481C9.94201 21.5467 9.59776 21.21 9.18913 20.9665C9.15271 20.9448 9.11499 20.9241 9.05149 20.8892C9.03804 20.8818 9.02343 20.8738 9.00744 20.865L8.46972 20.5689C7.57386 20.0757 7.1271 19.8295 6.80061 19.4791C6.51176 19.1691 6.29393 18.8013 6.15968 18.4011C6.00793 17.9488 6.00474 17.4419 6.00241 16.4274L6.00049 15.5926C5.99815 14.5713 5.99802 14.0606 6.14943 13.6051C6.28338 13.2022 6.50281 12.8322 6.79328 12.5204C7.12163 12.1678 7.57288 11.9201 8.47558 11.425L9.01814 11.1275C9.03343 11.1191 9.04737 11.1114 9.06018 11.1044C9.1181 11.0727 9.15298 11.0536 9.18638 11.0339C9.59875 10.7906 9.94572 10.453 10.1989 10.0493C10.2182 10.0186 10.2364 9.9872 10.2658 9.93675C10.2746 9.92156 10.2844 9.90464 10.2956 9.8855C10.3439 9.80282 10.368 9.76143 10.3905 9.72005C10.6172 9.30154 10.7411 8.83503 10.7482 8.36021C10.7486 8.33302 10.7479 8.30567 10.7468 8.26892C10.7461 8.24222 10.7452 8.21047 10.7445 8.1703L10.7338 7.53968C10.7165 6.52434 10.7089 6.01639 10.8521 5.56089C10.9788 5.15792 11.1906 4.78635 11.4738 4.47085C11.793 4.11531 12.2351 3.86137 13.1172 3.35473L13.1253 3.34982L13.8571 2.92952L13.8611 2.92778C14.7512 2.41653 15.1963 2.1609 15.6698 2.06303C16.0891 1.97634 16.5218 1.97891 16.9398 2.07173C17.4123 2.17664 17.8551 2.4397 18.7393 2.96505L19.2737 3.2825C19.2901 3.29224 19.3049 3.30105 19.3184 3.30908M9.00744 20.865L9.05149 20.8892M9.01814 11.1275L9.06018 11.1044M19.2737 3.2825L19.3184 3.30908M31.7063 9.88657C31.6575 9.80293 31.6328 9.76055 31.6101 9.71859C31.384 9.30083 31.2617 8.83528 31.2544 8.36142C31.2536 8.31379 31.2538 8.26512 31.2554 8.16835L31.2662 7.53684C31.2834 6.52626 31.292 6.0194 31.1485 5.56452C31.021 5.16047 30.8077 4.78832 30.523 4.4725C30.201 4.1155 29.7555 3.86082 28.8634 3.35209L28.1224 2.92952C27.2328 2.42221 26.7878 2.16846 26.3155 2.07173C25.8977 1.98615 25.4665 1.99011 25.0502 2.0826C24.5803 2.18699 24.1409 2.44735 23.2627 2.96776L23.2577 2.97012L22.7267 3.28473C22.6428 3.33448 22.6003 3.35956 22.5582 3.38271C22.1406 3.61247 21.6745 3.73951 21.1969 3.75468C21.1488 3.75621 21.0998 3.75621 21.0019 3.75621C20.9046 3.75621 20.8536 3.75621 20.8056 3.75468C20.327 3.73944 19.8599 3.61171 19.4416 3.381C19.4077 3.36229 19.3741 3.34226 19.3184 3.30908M31.7063 9.88657L31.7411 9.9464M10.327 22.1761C10.3604 22.2336 10.3809 22.269 10.3998 22.3043C10.6199 22.7167 10.7377 23.1749 10.7457 23.6412C10.7466 23.6915 10.7459 23.7425 10.7441 23.8449L10.7338 24.4501C10.7164 25.4689 10.7088 25.9789 10.8529 26.4357C10.9804 26.8397 11.1934 27.2118 11.4782 27.5277C11.8001 27.8847 12.2464 28.1392 13.1385 28.648L13.8794 29.0704C14.769 29.5778 15.2136 29.8312 15.6859 29.9279C16.1038 30.0135 16.5352 30.0102 16.9515 29.9177C17.4221 29.8132 17.863 29.5519 18.7437 29.03L19.2747 28.7154C19.3587 28.6656 19.4012 28.6407 19.4433 28.6175C19.8609 28.3877 20.3266 28.2601 20.8041 28.2449C20.8522 28.2434 20.9012 28.2434 20.9991 28.2434C21.0972 28.2434 21.1461 28.2434 21.1943 28.2449C21.6729 28.2601 22.1414 28.3882 22.5597 28.619C22.5965 28.6393 22.6333 28.6612 22.6981 28.6997L23.2625 29.035C24.1469 29.5604 24.5887 29.8227 25.0613 29.9276C25.4793 30.0204 25.9123 30.0242 26.3316 29.9375C26.805 29.8397 27.251 29.5836 28.1406 29.0726L28.8834 28.646C29.7661 28.139 30.2087 27.8848 30.528 27.5291C30.8112 27.2136 31.0232 26.8422 31.1499 26.4393C31.2921 25.9871 31.2836 25.483 31.2665 24.4823L31.2554 23.8297C31.2538 23.7342 31.2536 23.6867 31.2543 23.6397C31.2614 23.1649 31.3833 22.6981 31.6101 22.2796C31.6325 22.2382 31.6568 22.1965 31.7049 22.1141C31.7532 22.0314 31.7782 21.9902 31.8032 21.9502C32.0564 21.5465 32.4037 21.2087 32.8161 20.9653C32.8564 20.9415 32.8979 20.9188 32.9803 20.8736L32.9832 20.8723L33.5257 20.5747C34.4284 20.0797 34.8805 19.8317 35.2089 19.4791C35.4994 19.1672 35.7185 18.7978 35.8524 18.3949C36.003 17.9421 36.0018 17.4344 35.9995 16.425L35.9975 15.5723C35.9952 14.5578 35.9939 14.0509 35.8422 13.5986C35.7079 13.1984 35.4889 12.8306 35.2 12.5206C34.8739 12.1705 34.4265 11.9242 33.5324 11.432L33.5298 11.4307L32.9802 11.1282C32.8949 11.0812 32.8529 11.0576 32.8117 11.0332C32.4019 10.7903 32.0565 10.4546 31.8045 10.0531C31.786 10.0237 31.7683 9.99312 31.7411 9.9464C31.731 9.92898 31.7196 9.9093 31.7063 9.88657M10.2956 9.8855L10.2658 9.93675M10.2983 22.1264L10.327 22.1761M21.0005 21.9401C17.6855 21.9401 14.9981 19.2807 14.9981 16.0001C14.9981 12.7195 17.6855 10.0601 21.0005 10.0601C24.3155 10.0601 27.0028 12.7195 27.0028 16.0001C27.0028 19.2807 24.3155 21.9401 21.0005 21.9401Z" stroke="#303348" stroke-width="4" stroke-linecap="round" stroke-linejoin="round"/>
</g>
<defs>
<filter id="filter0_d_716_302" x="0" y="0" width="42" height="40" filterUnits="userSpaceOnUse" color-interpolation-filters="sRGB">
<feFlood flood-opacity="0" result="BackgroundImageFix"/>
<feColorMatrix in="SourceAlpha" type="matrix" values="0 0 0 0 0 0 0 0 0 0 0 0 0 0 0 0 0 0 127 0" result="hardAlpha"/>
<feOffset dy="4"/>
<feGaussianBlur stdDeviation="2"/>
<feComposite in2="hardAlpha" operator="out"/>
<feColorMatrix type="matrix" values="0 0 0 0 0 0 0 0 0 0 0 0 0 0 0 0 0 0 0.12 0"/>
<feBlend mode="normal" in2="BackgroundImageFix" result="effect1_dropShadow_716_302"/>
<feBlend mode="normal" in="SourceGraphic" in2="effect1_dropShadow_716_302" result="shape"/>
</filter>
</defs>
</svg>
