<svg width="342" height="475" viewBox="0 0 342 475" fill="none" xmlns="http://www.w3.org/2000/svg">
<g filter="url(#filter0_d_716_264)">
<path d="M135 58C135 58 131.361 147.654 135 156C144 176.647 140.5 185 156.5 198C172.5 211 194.772 218.336 211 215.5C240 210.431 260 198 260 198" stroke="#528CEF" stroke-width="11" stroke-linecap="round"/>
<path d="M46.622 316.747L118.307 327.691L123.719 332L133.82 314.509L126.331 307.544L137.03 288.641L118.307 278.691L46.622 267.747L12.3846 275.706V324.706L46.622 316.747Z" fill="#F77B4F"/>
<path d="M326.941 229.69L335.5 213.771V164.771L326.941 180.69C322.483 178.534 310.036 176.213 295.913 184.172L262.211 194.619V205.5V219.99L282.539 237.899L295.913 233.172C310.036 225.213 322.483 227.534 326.941 229.69Z" fill="#F77B4F"/>
<path d="M282.539 349.082V300.082L265.955 296.6L246.162 303.067V316.499L211.525 361.5L170.733 414.5L148.799 410.52V388.88V367.241L143.45 357.789H131.68V346.347L126.331 349.767L123.121 351.819L118.307 341.372V390.372L123.121 400.819L131.68 395.347V406.789H143.45L148.799 416.241V459.52L170.733 463.5L246.162 365.499V352.067L265.955 345.6L282.539 349.082Z" fill="#F77B4F"/>
<path d="M34.5404 229.5L46.622 203.573L25.2236 183.425L6.5 164.771V213.771L34.5404 229.5Z" fill="#F77B4F"/>
<path d="M246.162 303.067L265.955 296.6L256 286.899V278.691H265.955L246.162 229.69H207L205 235.5L173 243.5L158 258L141.535 254L143.817 261.873L159.5 267.747L162.5 261.5L168 267.747L165.5 275.706L189 282V291.5L207 324.706L211.525 361.5L246.162 316.499V303.067Z" fill="#DBC8C2"/>
<path d="M118.307 278.691L137.03 288.641L207 324.706L189 291.5V282L165.5 275.706L168 267.747L162.5 261.5L159.5 267.747L143.817 261.873L128.134 256L118.307 278.691Z" fill="#DBC8C2"/>
<path d="M148.799 410.52L170.733 414.5L211.525 361.5L207 324.706L137.03 288.641L126.331 307.544L133.82 314.509L123.719 332L118.307 341.372L123.121 351.819L126.331 349.767L131.68 346.347V357.789H143.45L148.799 367.241V388.88V410.52Z" fill="#DBC8C2"/>
<path d="M46.622 267.747L118.307 278.691L128.134 256L129 254L101.5 229.5H34.5404L32.713 233.422H25.2236L12.3846 275.706L46.622 267.747Z" fill="#DBC8C2"/>
<path d="M46.622 203.573L34.5404 229.5H101.5L95 203.573H46.622Z" fill="#DBC8C2"/>
<path d="M118.307 213.771L131.68 219.99L141.535 254L158 258L173 243.5L205 235.5L207 229.69V219.99C207 219.99 167.752 217.24 152 203.573C136.248 189.907 126.331 150 126.331 150L123.719 164.771L118.307 178.5V213.771Z" fill="#FFF369"/>
<path d="M16.1293 159.299L6.5 164.771L25.2236 183.425L46.622 203.573H95L91.5 180.69L25.2236 134.425L16.1293 159.299Z" fill="#DBC8C2"/>
<path d="M16.1293 121.989L25.2236 134.425L91.5 180.69L126.331 150V103.582L104.398 95.1253L88.8837 100.597L53.5764 89.6532L46.622 100.597L16.1293 121.989Z" fill="#DBC8C2"/>
<path d="M126.331 150L91.5 180.69L95 203.573L101.5 229.5L129 254L128.134 256L143.817 261.873L141.535 254L131.68 219.99L118.307 213.771V178.5L123.719 164.771L126.331 150Z" fill="#DBC8C2"/>
<path d="M282.539 300.082V286.899V237.899L262.211 219.99V205.5C262.211 205.5 245.781 212.671 235 215.5C224.219 218.329 207 219.99 207 219.99V229.69H246.162L265.955 278.691H256V286.899L265.955 296.6L282.539 300.082Z" fill="#DBC8C2"/>
<path d="M265.955 95.1253C252.688 88.3597 223.693 88.6582 210.854 89.6532H200.5L196.5 103.582L223.36 159.299L242.5 199L262.211 194.619L295.913 184.172C310.036 176.213 322.483 178.534 326.941 180.69L335.5 164.771L317.459 143.682L303.423 153.175L288.846 134.425L282.539 137.686L273.73 114.202L299.644 89.6532L288.846 78.7253L265.955 95.1253Z" fill="#DBC8C2"/>
<path d="M242.5 199L223.36 159.299L194.015 180.69L178.5 192L185 199L182 206.688C210.051 213.24 242.5 199 242.5 199Z" fill="#DBC8C2"/>
<path d="M196.5 103.582H178.5L182.255 122.245L188.746 154.5L194.015 180.69L223.36 159.299L196.5 103.582Z" fill="#DBC8C2"/>
<path d="M206.04 46.8709L143.45 21.5C138.8 29.3163 135.234 41.5167 132.579 54.5L141.535 58.1087L165.5 67.7646L178.5 103.582H196.5L200.5 89.6532H210.854V74.7291L206.04 67.7646V46.8709Z" fill="#DBC8C2"/>
<path d="M178.5 103.582L165.5 67.7646L141.535 58.1087C141.535 58.1087 134.079 93.5155 137.312 131.5L182.255 122.245L178.5 103.582Z" fill="#DBC8C2"/>
<path d="M147.183 175.5L159.5 168L188.746 154.5L182.255 122.245L137.312 131.5C138.583 146.433 141.505 161.765 147.183 175.5Z" fill="#DBC8C2"/>
<path d="M168 172L178.5 192L194.015 180.69L188.746 154.5L159.5 168L162.5 175.5L168 172Z" fill="#DBC8C2"/>
<path d="M185 199L178.5 192L168 172L162.5 175.5L159.5 168L147.183 175.5C147.909 177.257 148.681 178.989 149.5 180.69C156.942 196.148 168.999 203.652 182 206.688L185 199Z" fill="#DBC8C2"/>
<path d="M282.539 286.899V349.082M282.539 286.899V300.082M282.539 286.899V237.899M282.539 300.082V349.082L265.955 345.6L246.162 352.067V365.499L170.733 463.5L148.799 459.52V416.241L143.45 406.789H131.68V395.347L123.121 400.819L118.307 390.372V341.372L123.719 332L133.82 314.509L126.331 307.544L137.03 288.641M196.5 103.582L200.5 89.6532H210.854C223.693 88.6582 252.688 88.3597 265.955 95.1253L288.846 78.7253L299.644 89.6532L273.73 114.202L282.539 137.686L288.846 134.425L303.423 153.175L317.459 143.682L335.5 164.771V213.771L326.941 229.69C322.483 227.534 310.036 225.213 295.913 233.172L282.539 237.899M126.331 103.582C126.954 92.1919 128.882 72.5862 132.579 54.5C135.234 41.5167 138.8 29.3163 143.45 21.5L206.04 46.8709V67.7646L210.854 74.7291V89.6532M335.5 164.771L326.941 180.69C322.483 178.534 310.036 176.213 295.913 184.172L262.211 194.619M262.211 194.619V205.5M262.211 194.619L242.5 199M282.539 237.899L262.211 219.99V205.5M282.539 237.899V300.082M282.539 300.082L265.955 296.6M118.307 341.372L123.121 351.819L126.331 349.767L131.68 346.347V357.789H143.45L148.799 367.241V388.88V410.52L170.733 414.5L211.525 361.5L246.162 316.499V303.067L265.955 296.6M265.955 296.6L256 286.899V278.691H265.955L246.162 229.69H207M137.03 288.641L118.307 278.691M137.03 288.641L207 324.706M118.307 278.691L46.622 267.747L12.3846 275.706M101.5 229.5L129 254L128.134 256L118.307 278.691M123.719 332L118.307 327.691L46.622 316.747L12.3846 324.706V275.706L25.2236 233.422H32.713L34.5404 229.5M46.622 203.573L34.5404 229.5M46.622 203.573L25.2236 183.425L6.5 164.771M46.622 203.573H95M34.5404 229.5L6.5 213.771V164.771L16.1293 159.299L25.2236 134.425M25.2236 134.425L16.1293 121.989L46.622 100.597L53.5764 89.6532L88.8837 100.597L104.398 95.1253L126.331 103.582M25.2236 134.425L91.5 180.69M126.331 103.582V150M34.5404 229.5H101.5M91.5 180.69L126.331 150M91.5 180.69L95 203.573M126.331 150L123.719 164.771L118.307 178.5V213.771L131.68 219.99L141.535 254M126.331 150C126.331 150 136.248 189.907 152 203.573C167.752 217.24 207 219.99 207 219.99M95 203.573L101.5 229.5M143.817 261.873L159.5 267.747L162.5 261.5L168 267.747L165.5 275.706L189 282V291.5L207 324.706L211.525 361.5M128.134 256L143.817 261.873M143.817 261.873L141.535 254M207 229.69V219.99M207 229.69L205 235.5L173 243.5L158 258L141.535 254M207 219.99C207 219.99 224.219 218.329 235 215.5C245.781 212.671 262.211 205.5 262.211 205.5M132.579 54.5L141.535 58.1087M178.5 103.582L165.5 67.7646L141.535 58.1087M178.5 103.582H196.5M178.5 103.582L182.255 122.245M196.5 103.582L223.36 159.299M242.5 199L223.36 159.299M147.183 175.5C147.909 177.257 148.681 178.989 149.5 180.69C156.942 196.148 168.999 203.652 182 206.688C210.051 213.24 242.5 199 242.5 199M147.183 175.5C141.505 161.765 138.583 146.433 137.312 131.5C134.079 93.5155 141.535 58.1087 141.535 58.1087M223.36 159.299L194.015 180.69M159.5 168L162.5 175.5L168 172L178.5 192L185 199L182 206.688M178.5 192L194.015 180.69M188.746 154.5L159.5 168L147.183 175.5M194.015 180.69L188.746 154.5M183.5 121.989L182.255 122.245M137.312 131.5L182.255 122.245M188.746 154.5L182.255 122.245" stroke="#303348" stroke-width="5"/>
<g filter="url(#filter1_d_716_264)">
<circle cx="146" cy="200" r="18.5" transform="rotate(-90 146 200)" fill="#F77B4F" stroke="#303348" stroke-width="5"/>
<path d="M141.138 209.5V207.012H145.025V194.25L141.4 196.287L141.025 193.587L145.175 191.112H147.875V207.012H151.775V209.5H141.138Z" fill="white"/>
</g>
<circle cx="146" cy="21" r="18.5" transform="rotate(-90 146 21)" fill="white" stroke="#303348" stroke-width="5"/>
<path fill-rule="evenodd" clip-rule="evenodd" d="M140.5 28.5V19.7733H152.5V28.5H140.5ZM144.952 26.5607L145.919 24.6216L145.145 23.3288L146.694 21.8745L147.855 23.3288L147.274 24.6216L148.435 26.5607H144.952Z" fill="#303348"/>
<path d="M152.5 19.7733C152.5 19.7733 152.5 17.9962 152.5 16.3803C152.5 14.7644 149.596 12.5778 146.694 12.5021C143.672 12.4232 140.5 14.6035 140.5 16.3803C140.5 18.1578 140.5 19.7733 140.5 19.7733V28.5H152.5V19.7733ZM140.5 19.7733H152.5M145.919 24.6216L144.952 26.5607H148.435L147.274 24.6216L147.855 23.3288L146.694 21.8745L145.145 23.3288L145.919 24.6216Z" stroke="#303348" stroke-width="4"/>
<path d="M148.5 26.5H144.5L145.5 24.1471V22.0882C145.5 22.0882 145.5 21.5 146.5 21.5C147.5 21.5 147.5 22.0882 147.5 22.0882V24.1471L148.5 26.5Z" fill="white" stroke="white"/>
<circle cx="255" cy="119" r="18.5" transform="rotate(-90 255 119)" fill="white" stroke="#303348" stroke-width="5"/>
<path fill-rule="evenodd" clip-rule="evenodd" d="M249.5 126.5V117.773H261.5V126.5H249.5ZM253.952 124.561L254.919 122.622L254.145 121.329L255.694 119.874L256.855 121.329L256.274 122.622L257.435 124.561H253.952Z" fill="#303348"/>
<path d="M261.5 117.773C261.5 117.773 261.5 115.996 261.5 114.38C261.5 112.764 258.596 110.578 255.694 110.502C252.672 110.423 249.5 112.603 249.5 114.38C249.5 116.158 249.5 117.773 249.5 117.773V126.5H261.5V117.773ZM249.5 117.773H261.5M254.919 122.622L253.952 124.561H257.435L256.274 122.622L256.855 121.329L255.694 119.874L254.145 121.329L254.919 122.622Z" stroke="#303348" stroke-width="4"/>
<path d="M257.5 124.5H253.5L254.5 122.147V120.088C254.5 120.088 254.5 119.5 255.5 119.5C256.5 119.5 256.5 120.088 256.5 120.088V122.147L257.5 124.5Z" fill="white" stroke="white"/>
<circle cx="79" cy="124" r="18.5" transform="rotate(-90 79 124)" fill="white" stroke="#303348" stroke-width="5"/>
<path fill-rule="evenodd" clip-rule="evenodd" d="M73.5 131.5V122.773H85.5V131.5H73.5ZM77.9516 129.561L78.9194 127.622L78.1452 126.329L79.6935 124.874L80.8548 126.329L80.2742 127.622L81.4355 129.561H77.9516Z" fill="#303348"/>
<path d="M85.5 122.773C85.5 122.773 85.5 120.996 85.5 119.38C85.5 117.764 82.596 115.578 79.6935 115.502C76.6716 115.423 73.5 117.603 73.5 119.38C73.5 121.158 73.5 122.773 73.5 122.773V131.5H85.5V122.773ZM73.5 122.773H85.5M78.9194 127.622L77.9516 129.561H81.4355L80.2742 127.622L80.8548 126.329L79.6935 124.874L78.1452 126.329L78.9194 127.622Z" stroke="#303348" stroke-width="4"/>
<path d="M81.5 129.5H77.5L78.5 127.147V125.088C78.5 125.088 78.5 124.5 79.5 124.5C80.5 124.5 80.5 125.088 80.5 125.088V127.147L81.5 129.5Z" fill="white" stroke="white"/>
<circle cx="55" cy="242" r="18.5" transform="rotate(-90 55 242)" fill="white" stroke="#303348" stroke-width="5"/>
<path fill-rule="evenodd" clip-rule="evenodd" d="M49.5 249.5V240.773H61.5V249.5H49.5ZM53.9516 247.561L54.9194 245.622L54.1452 244.329L55.6935 242.874L56.8548 244.329L56.2742 245.622L57.4355 247.561H53.9516Z" fill="#303348"/>
<path d="M61.5 240.773C61.5 240.773 61.5 238.996 61.5 237.38C61.5 235.764 58.596 233.578 55.6935 233.502C52.6716 233.423 49.5 235.603 49.5 237.38C49.5 239.158 49.5 240.773 49.5 240.773V249.5H61.5V240.773ZM49.5 240.773H61.5M54.9194 245.622L53.9516 247.561H57.4355L56.2742 245.622L56.8548 244.329L55.6935 242.874L54.1452 244.329L54.9194 245.622Z" stroke="#303348" stroke-width="4"/>
<path d="M57.5 247.5H53.5L54.5 245.147V243.088C54.5 243.088 54.5 242.5 55.5 242.5C56.5 242.5 56.5 243.088 56.5 243.088V245.147L57.5 247.5Z" fill="white" stroke="white"/>
<circle cx="202" cy="329" r="18.5" transform="rotate(-90 202 329)" fill="white" stroke="#303348" stroke-width="5"/>
<path fill-rule="evenodd" clip-rule="evenodd" d="M196.5 336.5V327.773H208.5V336.5H196.5ZM200.952 334.561L201.919 332.622L201.145 331.329L202.694 329.874L203.855 331.329L203.274 332.622L204.435 334.561H200.952Z" fill="#303348"/>
<path d="M208.5 327.773C208.5 327.773 208.5 325.996 208.5 324.38C208.5 322.764 205.596 320.578 202.694 320.502C199.672 320.423 196.5 322.603 196.5 324.38C196.5 326.158 196.5 327.773 196.5 327.773V336.5H208.5V327.773ZM196.5 327.773H208.5M201.919 332.622L200.952 334.561H204.435L203.274 332.622L203.855 331.329L202.694 329.874L201.145 331.329L201.919 332.622Z" stroke="#303348" stroke-width="4"/>
<path d="M204.5 334.5H200.5L201.5 332.147V330.088C201.5 330.088 201.5 329.5 202.5 329.5C203.5 329.5 203.5 330.088 203.5 330.088V332.147L204.5 334.5Z" fill="white" stroke="white"/>
<circle cx="255" cy="252" r="18.5" transform="rotate(-90 255 252)" fill="white" stroke="#303348" stroke-width="5"/>
<path fill-rule="evenodd" clip-rule="evenodd" d="M249.5 259.5V250.773H261.5V259.5H249.5ZM253.952 257.561L254.919 255.622L254.145 254.329L255.694 252.874L256.855 254.329L256.274 255.622L257.435 257.561H253.952Z" fill="#303348"/>
<path d="M261.5 250.773C261.5 250.773 261.5 248.996 261.5 247.38C261.5 245.764 258.596 243.578 255.694 243.502C252.672 243.423 249.5 245.603 249.5 247.38C249.5 249.158 249.5 250.773 249.5 250.773V259.5H261.5V250.773ZM249.5 250.773H261.5M254.919 255.622L253.952 257.561H257.435L256.274 255.622L256.855 254.329L255.694 252.874L254.145 254.329L254.919 255.622Z" stroke="#303348" stroke-width="4"/>
<path d="M257.5 257.5H253.5L254.5 255.147V253.088C254.5 253.088 254.5 252.5 255.5 252.5C256.5 252.5 256.5 253.088 256.5 253.088V255.147L257.5 257.5Z" fill="white" stroke="white"/>
</g>
<defs>
<filter id="filter0_d_716_264" x="0" y="0" width="342" height="474.23" filterUnits="userSpaceOnUse" color-interpolation-filters="sRGB">
<feFlood flood-opacity="0" result="BackgroundImageFix"/>
<feColorMatrix in="SourceAlpha" type="matrix" values="0 0 0 0 0 0 0 0 0 0 0 0 0 0 0 0 0 0 127 0" result="hardAlpha"/>
<feOffset dy="4"/>
<feGaussianBlur stdDeviation="2"/>
<feComposite in2="hardAlpha" operator="out"/>
<feColorMatrix type="matrix" values="0 0 0 0 0 0 0 0 0 0 0 0 0 0 0 0 0 0 0.12 0"/>
<feBlend mode="normal" in2="BackgroundImageFix" result="effect1_dropShadow_716_264"/>
<feBlend mode="normal" in="SourceGraphic" in2="effect1_dropShadow_716_264" result="shape"/>
</filter>
<filter id="filter1_d_716_264" x="121" y="179" width="50" height="50" filterUnits="userSpaceOnUse" color-interpolation-filters="sRGB">
<feFlood flood-opacity="0" result="BackgroundImageFix"/>
<feColorMatrix in="SourceAlpha" type="matrix" values="0 0 0 0 0 0 0 0 0 0 0 0 0 0 0 0 0 0 127 0" result="hardAlpha"/>
<feOffset dy="4"/>
<feGaussianBlur stdDeviation="2"/>
<feComposite in2="hardAlpha" operator="out"/>
<feColorMatrix type="matrix" values="0 0 0 0 0 0 0 0 0 0 0 0 0 0 0 0 0 0 0.12 0"/>
<feBlend mode="normal" in2="BackgroundImageFix" result="effect1_dropShadow_716_264"/>
<feBlend mode="normal" in="SourceGraphic" in2="effect1_dropShadow_716_264" result="shape"/>
</filter>
</defs>
</svg>
