<svg width="342" height="456" viewBox="0 0 342 456" fill="none" xmlns="http://www.w3.org/2000/svg">
<g filter="url(#filter0_d_788_149)">
<path d="M135 39.625C135 39.625 131.361 129.279 135 137.625C144 158.272 140.5 166.625 156.5 179.625C172.5 192.625 194.772 199.961 211 197.125C240 192.056 260 179.625 260 179.625" stroke="#528CEF" stroke-width="11" stroke-linecap="round"/>
<path d="M46.622 298.372L118.307 309.316L123.719 313.625L133.82 296.134L126.331 289.169L137.03 270.266L118.307 260.316L46.622 249.372L12.3846 257.331V306.331L46.622 298.372Z" fill="#F77B4F"/>
<path d="M326.941 211.315L335.5 195.396V146.396L326.941 162.315C322.483 160.159 310.036 157.838 295.913 165.797L262.211 176.244V187.125V201.615L282.539 219.524L295.913 214.797C310.036 206.838 322.483 209.159 326.941 211.315Z" fill="#F77B4F"/>
<path d="M282.539 330.707V281.707L265.955 278.225L246.162 284.692V298.124L211.525 343.125L170.733 396.125L148.799 392.145V370.505V348.866L143.45 339.414H131.68V327.972L126.331 331.392L123.121 333.444L118.307 322.997V371.997L123.121 382.444L131.68 376.972V388.414H143.45L148.799 397.866V441.145L170.733 445.125L246.162 347.124V333.692L265.955 327.225L282.539 330.707Z" fill="#F77B4F"/>
<path d="M34.5404 211.125L46.622 185.198L25.2236 165.05L6.5 146.396V195.396L34.5404 211.125Z" fill="#F77B4F"/>
<path d="M246.162 284.692L265.955 278.225L256 268.524V260.316H265.955L246.162 211.315H207L205 217.125L173 225.125L158 239.625L141.535 235.625L143.817 243.498L159.5 249.372L162.5 243.125L168 249.372L165.5 257.331L189 263.625V273.125L207 306.331L211.525 343.125L246.162 298.124V284.692Z" fill="#DBC8C2"/>
<path d="M118.307 260.316L137.03 270.266L207 306.331L189 273.125V263.625L165.5 257.331L168 249.372L162.5 243.125L159.5 249.372L143.817 243.498L128.134 237.625L118.307 260.316Z" fill="#DBC8C2"/>
<path d="M148.799 392.145L170.733 396.125L211.525 343.125L207 306.331L137.03 270.266L126.331 289.169L133.82 296.134L123.719 313.625L118.307 322.997L123.121 333.444L126.331 331.392L131.68 327.972V339.414H143.45L148.799 348.866V370.505V392.145Z" fill="#DBC8C2"/>
<path d="M46.622 249.372L118.307 260.316L128.134 237.625L129 235.625L101.5 211.125H34.5404L32.713 215.047H25.2236L12.3846 257.331L46.622 249.372Z" fill="#DBC8C2"/>
<path d="M46.622 185.198L34.5404 211.125H101.5L95 185.198H46.622Z" fill="#DBC8C2"/>
<path d="M118.307 195.396L131.68 201.615L141.535 235.625L158 239.625L173 225.125L205 217.125L207 211.315V201.615C207 201.615 167.752 198.865 152 185.198C136.248 171.532 126.331 131.625 126.331 131.625L123.719 146.396L118.307 160.125V195.396Z" fill="#FFF369"/>
<path d="M16.1293 140.924L6.5 146.396L25.2236 165.05L46.622 185.198H95L91.5 162.315L25.2236 116.05L16.1293 140.924Z" fill="#DBC8C2"/>
<path d="M16.1293 103.614L25.2236 116.05L91.5 162.315L126.331 131.625V85.2073L104.398 76.7503L88.8837 82.2225L53.5764 71.2782L46.622 82.2225L16.1293 103.614Z" fill="#DBC8C2"/>
<path d="M126.331 131.625L91.5 162.315L95 185.198L101.5 211.125L129 235.625L128.134 237.625L143.817 243.498L141.535 235.625L131.68 201.615L118.307 195.396V160.125L123.719 146.396L126.331 131.625Z" fill="#DBC8C2"/>
<path d="M282.539 281.707V268.524V219.524L262.211 201.615V187.125C262.211 187.125 245.781 194.296 235 197.125C224.219 199.954 207 201.615 207 201.615V211.315H246.162L265.955 260.316H256V268.524L265.955 278.225L282.539 281.707Z" fill="#DBC8C2"/>
<path d="M265.955 76.7503C252.688 69.9847 223.693 70.2832 210.854 71.2782H200.5L196.5 85.2073L223.36 140.924L242.5 180.625L262.211 176.244L295.913 165.797C310.036 157.838 322.483 160.159 326.941 162.315L335.5 146.396L317.459 125.307L303.423 134.8L288.846 116.05L282.539 119.311L273.73 95.8265L299.644 71.2782L288.846 60.3503L265.955 76.7503Z" fill="#DBC8C2"/>
<path d="M242.5 180.625L223.36 140.924L194.015 162.315L178.5 173.625L185 180.625L182 188.313C210.051 194.865 242.5 180.625 242.5 180.625Z" fill="#DBC8C2"/>
<path d="M196.5 85.2073H178.5L182.255 103.87L188.746 136.125L194.015 162.315L223.36 140.924L196.5 85.2073Z" fill="#DBC8C2"/>
<path d="M206.04 28.4959L143.45 3.125C138.8 10.9413 135.234 23.1417 132.579 36.125L141.535 39.7337L165.5 49.3896L178.5 85.2073H196.5L200.5 71.2782H210.854V56.3541L206.04 49.3896V28.4959Z" fill="#DBC8C2"/>
<path d="M178.5 85.2073L165.5 49.3896L141.535 39.7337C141.535 39.7337 134.079 75.1405 137.312 113.125L182.255 103.87L178.5 85.2073Z" fill="#DBC8C2"/>
<path d="M147.183 157.125L159.5 149.625L188.746 136.125L182.255 103.87L137.312 113.125C138.583 128.058 141.505 143.39 147.183 157.125Z" fill="#DBC8C2"/>
<path d="M168 153.625L178.5 173.625L194.015 162.315L188.746 136.125L159.5 149.625L162.5 157.125L168 153.625Z" fill="#DBC8C2"/>
<path d="M185 180.625L178.5 173.625L168 153.625L162.5 157.125L159.5 149.625L147.183 157.125C147.909 158.882 148.681 160.614 149.5 162.315C156.942 177.773 168.999 185.277 182 188.313L185 180.625Z" fill="#FFF369"/>
<path d="M282.539 268.524V330.707M282.539 268.524V281.707M282.539 268.524V219.524M282.539 281.707V330.707L265.955 327.225L246.162 333.692V347.124L170.733 445.125L148.799 441.145V397.866L143.45 388.414H131.68V376.972L123.121 382.444L118.307 371.997V322.997L123.719 313.625L133.82 296.134L126.331 289.169L137.03 270.266M196.5 85.2073L200.5 71.2782H210.854C223.693 70.2832 252.688 69.9847 265.955 76.7503L288.846 60.3503L299.644 71.2782L273.73 95.8265L282.539 119.311L288.846 116.05L303.423 134.8L317.459 125.307L335.5 146.396V195.396L326.941 211.315C322.483 209.159 310.036 206.838 295.913 214.797L282.539 219.524M126.331 85.2073C126.954 73.8169 128.882 54.2112 132.579 36.125C135.234 23.1417 138.8 10.9413 143.45 3.125L206.04 28.4959V49.3896L210.854 56.3541V71.2782M335.5 146.396L326.941 162.315C322.483 160.159 310.036 157.838 295.913 165.797L262.211 176.244M262.211 176.244V187.125M262.211 176.244L242.5 180.625M282.539 219.524L262.211 201.615V187.125M282.539 219.524V281.707M282.539 281.707L265.955 278.225M118.307 322.997L123.121 333.444L126.331 331.392L131.68 327.972V339.414H143.45L148.799 348.866V370.505V392.145L170.733 396.125L211.525 343.125L246.162 298.124V284.692L265.955 278.225M265.955 278.225L256 268.524V260.316H265.955L246.162 211.315H207M137.03 270.266L118.307 260.316M137.03 270.266L207 306.331M118.307 260.316L46.622 249.372L12.3846 257.331M101.5 211.125L129 235.625L128.134 237.625L118.307 260.316M123.719 313.625L118.307 309.316L46.622 298.372L12.3846 306.331V257.331L25.2236 215.047H32.713L34.5404 211.125M46.622 185.198L34.5404 211.125M46.622 185.198L25.2236 165.05L6.5 146.396M46.622 185.198H95M34.5404 211.125L6.5 195.396V146.396L16.1293 140.924L25.2236 116.05M25.2236 116.05L16.1293 103.614L46.622 82.2225L53.5764 71.2782L88.8837 82.2225L104.398 76.7503L126.331 85.2073M25.2236 116.05L91.5 162.315M126.331 85.2073V131.625M34.5404 211.125H101.5M91.5 162.315L126.331 131.625M91.5 162.315L95 185.198M126.331 131.625L123.719 146.396L118.307 160.125V195.396L131.68 201.615L141.535 235.625M126.331 131.625C126.331 131.625 136.248 171.532 152 185.198C167.752 198.865 207 201.615 207 201.615M95 185.198L101.5 211.125M143.817 243.498L159.5 249.372L162.5 243.125L168 249.372L165.5 257.331L189 263.625V273.125L207 306.331L211.525 343.125M128.134 237.625L143.817 243.498M143.817 243.498L141.535 235.625M207 211.315V201.615M207 211.315L205 217.125L173 225.125L158 239.625L141.535 235.625M207 201.615C207 201.615 224.219 199.954 235 197.125C245.781 194.296 262.211 187.125 262.211 187.125M132.579 36.125L141.535 39.7337M178.5 85.2073L165.5 49.3896L141.535 39.7337M178.5 85.2073H196.5M178.5 85.2073L182.255 103.87M196.5 85.2073L223.36 140.924M242.5 180.625L223.36 140.924M147.183 157.125C147.909 158.882 148.681 160.614 149.5 162.315C156.942 177.773 168.999 185.277 182 188.313C210.051 194.865 242.5 180.625 242.5 180.625M147.183 157.125C141.505 143.39 138.583 128.058 137.312 113.125C134.079 75.1405 141.535 39.7337 141.535 39.7337M223.36 140.924L194.015 162.315M159.5 149.625L162.5 157.125L168 153.625L178.5 173.625L185 180.625L182 188.313M178.5 173.625L194.015 162.315M188.746 136.125L159.5 149.625L147.183 157.125M194.015 162.315L188.746 136.125M183.5 103.614L182.255 103.87M137.312 113.125L182.255 103.87M188.746 136.125L182.255 103.87" stroke="#303348" stroke-width="5"/>
<g filter="url(#filter1_d_788_149)">
<circle cx="146" cy="181.625" r="18.5" transform="rotate(-90 146 181.625)" fill="#F77B4F" stroke="#303348" stroke-width="5"/>
<path d="M145.505 190.125V174.637L142.036 176.749V173.766L145.505 171.693H148.231V190.125H145.505Z" fill="white"/>
</g>
<circle cx="150" cy="78.625" r="18.5" transform="rotate(-90 150 78.625)" fill="white" stroke="#303348" stroke-width="5"/>
<path fill-rule="evenodd" clip-rule="evenodd" d="M144.5 86.125V77.3983H156.5V86.125H144.5ZM148.952 84.1857L149.919 82.2466L149.145 80.9538L150.694 79.4995L151.855 80.9538L151.274 82.2466L152.435 84.1857H148.952Z" fill="#303348"/>
<path d="M156.5 77.3983C156.5 77.3983 156.5 75.6212 156.5 74.0053C156.5 72.3894 153.596 70.2028 150.694 70.1271C147.672 70.0482 144.5 72.2285 144.5 74.0053C144.5 75.7828 144.5 77.3983 144.5 77.3983V86.125H156.5V77.3983ZM144.5 77.3983H156.5M149.919 82.2466L148.952 84.1857H152.435L151.274 82.2466L151.855 80.9538L150.694 79.4995L149.145 80.9538L149.919 82.2466Z" stroke="#303348" stroke-width="4"/>
<path d="M152.5 84.125H148.5L149.5 81.7721V79.7132C149.5 79.7132 149.5 79.125 150.5 79.125C151.5 79.125 151.5 79.7132 151.5 79.7132V81.7721L152.5 84.125Z" fill="white" stroke="white"/>
<circle cx="255" cy="100.625" r="18.5" transform="rotate(-90 255 100.625)" fill="white" stroke="#303348" stroke-width="5"/>
<path fill-rule="evenodd" clip-rule="evenodd" d="M249.5 108.125V99.3983H261.5V108.125H249.5ZM253.952 106.186L254.919 104.247L254.145 102.954L255.694 101.499L256.855 102.954L256.274 104.247L257.435 106.186H253.952Z" fill="#303348"/>
<path d="M261.5 99.3983C261.5 99.3983 261.5 97.6212 261.5 96.0053C261.5 94.3894 258.596 92.2028 255.694 92.1271C252.672 92.0482 249.5 94.2285 249.5 96.0053C249.5 97.7828 249.5 99.3983 249.5 99.3983V108.125H261.5V99.3983ZM249.5 99.3983H261.5M254.919 104.247L253.952 106.186H257.435L256.274 104.247L256.855 102.954L255.694 101.499L254.145 102.954L254.919 104.247Z" stroke="#303348" stroke-width="4"/>
<path d="M257.5 106.125H253.5L254.5 103.772V101.713C254.5 101.713 254.5 101.125 255.5 101.125C256.5 101.125 256.5 101.713 256.5 101.713V103.772L257.5 106.125Z" fill="white" stroke="white"/>
<circle cx="81" cy="233.625" r="18.5" transform="rotate(-90 81 233.625)" fill="white" stroke="#303348" stroke-width="5"/>
<path fill-rule="evenodd" clip-rule="evenodd" d="M75.5 241.125V232.398H87.5V241.125H75.5ZM79.9516 239.186L80.9194 237.247L80.1452 235.954L81.6935 234.499L82.8548 235.954L82.2742 237.247L83.4355 239.186H79.9516Z" fill="#303348"/>
<path d="M87.5 232.398C87.5 232.398 87.5 230.621 87.5 229.005C87.5 227.389 84.596 225.203 81.6935 225.127C78.6716 225.048 75.5 227.228 75.5 229.005C75.5 230.783 75.5 232.398 75.5 232.398V241.125H87.5V232.398ZM75.5 232.398H87.5M80.9194 237.247L79.9516 239.186H83.4355L82.2742 237.247L82.8548 235.954L81.6935 234.499L80.1452 235.954L80.9194 237.247Z" stroke="#303348" stroke-width="4"/>
<path d="M83.5 239.125H79.5L80.5 236.772V234.713C80.5 234.713 80.5 234.125 81.5 234.125C82.5 234.125 82.5 234.713 82.5 234.713V236.772L83.5 239.125Z" fill="white" stroke="white"/>
<circle cx="165" cy="323.625" r="18.5" transform="rotate(-90 165 323.625)" fill="white" stroke="#303348" stroke-width="5"/>
<path fill-rule="evenodd" clip-rule="evenodd" d="M159.5 331.125V322.398H171.5V331.125H159.5ZM163.952 329.186L164.919 327.247L164.145 325.954L165.694 324.499L166.855 325.954L166.274 327.247L167.435 329.186H163.952Z" fill="#303348"/>
<path d="M171.5 322.398C171.5 322.398 171.5 320.621 171.5 319.005C171.5 317.389 168.596 315.203 165.694 315.127C162.672 315.048 159.5 317.228 159.5 319.005C159.5 320.783 159.5 322.398 159.5 322.398V331.125H171.5V322.398ZM159.5 322.398H171.5M164.919 327.247L163.952 329.186H167.435L166.274 327.247L166.855 325.954L165.694 324.499L164.145 325.954L164.919 327.247Z" stroke="#303348" stroke-width="4"/>
<path d="M167.5 329.125H163.5L164.5 326.772V324.713C164.5 324.713 164.5 324.125 165.5 324.125C166.5 324.125 166.5 324.713 166.5 324.713V326.772L167.5 329.125Z" fill="white" stroke="white"/>
</g>
<defs>
<filter id="filter0_d_788_149" x="0" y="0" width="342" height="455.855" filterUnits="userSpaceOnUse" color-interpolation-filters="sRGB">
<feFlood flood-opacity="0" result="BackgroundImageFix"/>
<feColorMatrix in="SourceAlpha" type="matrix" values="0 0 0 0 0 0 0 0 0 0 0 0 0 0 0 0 0 0 127 0" result="hardAlpha"/>
<feOffset dy="4"/>
<feGaussianBlur stdDeviation="2"/>
<feComposite in2="hardAlpha" operator="out"/>
<feColorMatrix type="matrix" values="0 0 0 0 0 0 0 0 0 0 0 0 0 0 0 0 0 0 0.12 0"/>
<feBlend mode="normal" in2="BackgroundImageFix" result="effect1_dropShadow_788_149"/>
<feBlend mode="normal" in="SourceGraphic" in2="effect1_dropShadow_788_149" result="shape"/>
</filter>
<filter id="filter1_d_788_149" x="121" y="160.625" width="50" height="50" filterUnits="userSpaceOnUse" color-interpolation-filters="sRGB">
<feFlood flood-opacity="0" result="BackgroundImageFix"/>
<feColorMatrix in="SourceAlpha" type="matrix" values="0 0 0 0 0 0 0 0 0 0 0 0 0 0 0 0 0 0 127 0" result="hardAlpha"/>
<feOffset dy="4"/>
<feGaussianBlur stdDeviation="2"/>
<feComposite in2="hardAlpha" operator="out"/>
<feColorMatrix type="matrix" values="0 0 0 0 0 0 0 0 0 0 0 0 0 0 0 0 0 0 0.12 0"/>
<feBlend mode="normal" in2="BackgroundImageFix" result="effect1_dropShadow_788_149"/>
<feBlend mode="normal" in="SourceGraphic" in2="effect1_dropShadow_788_149" result="shape"/>
</filter>
</defs>
</svg>
