<svg width="331" height="302" viewBox="0 0 331 302" fill="none" xmlns="http://www.w3.org/2000/svg">
<path d="M39.0234 2.55078V43.5508H2.02344V299.051H327.523V43.5508H77.0234L39.0234 2.55078Z" fill="#E38D6F"/>
<path d="M40.0234 2.55078C39.3568 2.55078 38.6901 2.55078 38.0234 2.55078C38.0234 16.2174 38.0234 29.8841 38.0234 43.5508L39.0234 42.5508C32.3417 42.5508 25.66 42.5508 18.9784 42.5508C17.6828 42.5508 16.3873 42.5508 15.0918 42.5508C10.7357 42.5508 6.37957 42.5495 2.02344 42.5469L1.02015 42.5463L1.01956 43.5508C0.985384 101.992 0.731805 160.434 0.523438 218.876C0.428152 245.601 0.218041 272.326 0.0148873 299.051L-0.000263929 301.044L2.02344 301.059C35.0476 301.31 68.0718 301.551 101.096 301.551C176.572 301.551 252.048 301.551 327.523 301.551H330.023V299.051C330.023 245.883 330.023 192.715 330.023 139.547C330.023 107.548 329.818 75.5494 329.583 43.5508L329.598 41.5062L327.523 41.491C299.773 41.6944 272.022 41.9194 244.271 42.0508C201.593 42.2528 158.915 42.5508 116.237 42.5508C104.88 42.5508 93.5236 42.5508 82.1668 42.5508C80.4524 42.5508 78.7379 42.5508 77.0234 42.5508L77.7569 42.871C65.0902 29.2043 52.4235 15.5377 39.7569 1.87102C39.2679 2.32419 38.779 2.77737 38.29 3.23055C50.9567 16.8972 63.6233 30.5639 76.29 44.2305L76.5868 44.5508H77.0234C78.7379 44.5508 80.4524 44.5508 82.1668 44.5508C93.5236 44.5508 104.88 44.5508 116.237 44.5508C158.915 44.5508 201.593 44.8488 244.271 45.0508C272.022 45.1821 299.773 45.4072 327.523 45.6106L325.464 43.5508C325.229 75.5494 325.023 107.548 325.023 139.547C325.023 192.715 325.023 245.883 325.023 299.051L327.523 296.551C252.048 296.551 176.572 296.551 101.096 296.551C68.0718 296.551 35.0476 296.791 2.02344 297.042L4.03199 299.051C3.82883 272.326 3.61872 245.601 3.52344 218.876C3.31507 160.434 3.06149 101.992 3.02731 43.5508L2.02344 44.5547C6.37957 44.5521 10.7357 44.5508 15.0918 44.5508C16.3873 44.5508 17.6828 44.5508 18.9784 44.5508C25.66 44.5508 32.3417 44.5508 39.0234 44.5508H40.0234V43.5508C40.0234 29.8841 40.0234 16.2174 40.0234 2.55078ZM38.0234 2.55078H40.0234L38.29 3.23055L39.7569 1.87102L38.0234 0.000736475V2.55078Z" fill="#AFF6F9"/>
</svg>
