<svg width="205" height="107" viewBox="0 0 205 107" fill="none" xmlns="http://www.w3.org/2000/svg">
<path d="M2.52344 22.7449C2.52344 11.044 12.0089 1.55859 23.7097 1.55859H180.337C192.038 1.55859 201.523 11.044 201.523 22.7449V82.3723C201.523 94.0732 192.038 103.559 180.337 103.559H23.7097C12.0089 103.559 2.52344 94.0732 2.52344 82.3723V22.7449Z" fill="#29E84C"/>
<path d="M23.7097 0.0452857C23.7097 1.05416 23.7097 2.06303 23.7097 3.0719C33.137 3.0719 42.5642 3.0719 51.9914 3.0719C89.7002 3.0719 127.409 3.0719 165.118 3.0719C170.191 3.0719 175.264 3.08505 180.337 3.10851C190.809 2.90523 200.09 12.4384 199.701 22.7449C199.485 42.6207 199.206 62.4965 199.034 82.3723C199.169 92.3303 190.197 101.15 180.337 100.91C180.337 100.91 180.337 100.91 180.337 100.91C133.201 100.91 86.0651 100.91 38.929 100.91C33.8559 100.91 28.7828 100.915 23.7097 100.923C13.8367 101.185 4.86156 92.3161 5.03821 82.3723C4.92878 62.4965 4.75209 42.6207 4.50812 22.7449C4.48743 21.2301 4.6428 19.7152 4.97497 18.238C6.74596 9.78768 14.8638 3.07956 23.7097 3.0719C23.7097 2.06303 23.7097 1.05416 23.7097 0.0452857C13.5162 -0.283916 3.63888 7.23506 1.23697 17.3423C0.792132 19.1055 0.558835 20.9243 0.538756 22.7449C0.29479 42.6207 0.118092 62.4965 0.00866151 82.3723C-0.363483 94.9987 11.0126 106.481 23.7097 106.194C28.7828 106.202 33.8559 106.207 38.929 106.207C86.0651 106.207 133.201 106.207 180.337 106.207C180.337 106.207 180.337 106.207 180.337 106.207C193.048 106.516 204.427 94.9846 204.013 82.3723C203.84 62.4965 203.561 42.6207 203.346 22.7449C203.506 10.4812 192.436 -0.336841 180.337 0.00867438C175.264 0.0321386 170.191 0.0452857 165.118 0.0452857C127.409 0.0452857 89.7002 0.0452857 51.9914 0.0452857C42.5642 0.0452857 33.137 0.0452857 23.7097 0.0452857ZM23.7097 3.0719V0.0452857V3.0719Z" fill="#137124"/>
<ellipse cx="39.5997" cy="52.5586" rx="7.56654" ry="7.5" fill="white"/>
<ellipse cx="64.5685" cy="52.5586" rx="7.56654" ry="7.5" fill="white"/>
<ellipse cx="89.5392" cy="52.5586" rx="7.56654" ry="7.5" fill="white"/>
<ellipse cx="114.508" cy="52.5586" rx="7.56654" ry="7.5" fill="white"/>
<ellipse cx="139.479" cy="52.5586" rx="7.56654" ry="7.5" fill="white"/>
<ellipse cx="164.447" cy="52.5586" rx="7.56654" ry="7.5" fill="white"/>
<rect x="31.5234" y="36.8047" width="15.2941" height="30.5882" rx="7.64705" fill="white"/>
<rect x="56.7578" y="21.5078" width="15.2941" height="59.647" rx="7.64705" fill="white"/>
<rect x="107.229" y="36.0352" width="15.2941" height="30.5882" rx="7.64705" fill="white"/>
<rect x="81.9941" y="29.918" width="15.2941" height="44.3529" rx="7.64705" fill="white"/>
</svg>
