<svg width="31" height="27" viewBox="0 0 31 27" fill="none" xmlns="http://www.w3.org/2000/svg">
<path d="M1.56688 15C1.0669 15 0.271494 15.1137 0.0669067 14.5C-0.231878 13.6037 0.566881 13 0.566881 13L14.0669 0.5C14.0669 0.5 14.7534 0 15.0669 0C15.3804 0 16.0669 0.5 16.0669 0.5L29.5669 13C29.5669 13 30.3937 13.8464 30.0669 14.5C29.7401 15.1536 29.0669 15 28.5669 15H25.5669V19.5V24C25.5669 24 25.5669 26 25.0669 26.5C24.5669 27 22.5669 27 22.5669 27H7.56689C7.56689 27 5.60993 27.043 5.06689 26.5C4.52386 25.957 4.56689 24 4.56689 24L4.56688 15H1.56688Z" fill="#44869A"/>
</svg>
