<svg width="135" height="132" viewBox="0 0 135 132" fill="none" xmlns="http://www.w3.org/2000/svg">
<path d="M6.76387 7.45258C13.5142 0.698902 23.412 0.050682 23.412 0.050682H108.003C108.003 0.050682 117.553 -1.09008 126.901 7.45257C135 14.8546 135 27.4378 135 27.4378V100.223C135 100.223 135 112.489 126.901 120.949C116.979 131.311 108.003 131.311 108.003 131.311H23.412C23.412 131.311 15.7632 131.311 6.76369 120.949C-0.558053 112.518 0.0145173 100.47 0.0145173 100.47V28.178C0.0145173 28.178 -0.635517 14.8556 6.76387 7.45258Z" fill="#8E2C2C"/>
<path d="M33 93L68.0948 63.5M103.19 34L68.0948 63.5M68.0948 63.5L33 34M68.0948 63.5L103.19 93" stroke="white" stroke-width="16.2759" stroke-linecap="round"/>
</svg>
