<svg width="135" height="132" viewBox="0 0 135 132" fill="none" xmlns="http://www.w3.org/2000/svg">
<path d="M6.76387 7.45258C13.5142 0.698902 23.412 0.050682 23.412 0.050682H108.003C108.003 0.050682 117.553 -1.09008 126.901 7.45257C135 14.8546 135 27.4378 135 27.4378V100.223C135 100.223 135 112.489 126.901 120.949C116.979 131.311 108.003 131.311 108.003 131.311H23.412C23.412 131.311 15.7632 131.311 6.76369 120.949C-0.558053 112.518 0.0145173 100.47 0.0145173 100.47V28.178C0.0145173 28.178 -0.635517 14.8556 6.76387 7.45258Z" fill="#45AD4F"/>
<path d="M67.3422 27C59.227 27 47.8666 32.2692 47.8663 32.8044C47.866 33.3396 47.8663 33.6517 47.8663 33.6517V81.4764V81.9C47.8663 82.1799 59.0909 87.8623 67.0539 87.8623C75.017 87.8623 86.8181 82.3236 86.8181 81.9V81.4764V33.6517V32.8044C86.8181 32.0845 75.4575 27 67.3422 27Z" fill="white" stroke="white" stroke-width="1.79594" stroke-linejoin="round"/>
<path d="M71.9676 99.5746V75.8096C71.9676 75.8096 69.124 76.3964 67.4778 76.3964C65.8315 76.3964 63.2872 75.8096 63.2872 75.8096V99.5746H56.7638C56.7638 99.5746 56.1018 99.6951 55.7781 100.034C55.4545 100.374 55.5049 100.775 55.5049 100.775V103.367C55.5049 103.367 55.3911 104.516 55.7781 104.903C56.2098 105.336 57.1631 105.443 57.1631 105.443H78.2973C78.2973 105.443 79.1627 105.349 79.5144 104.903C79.7923 104.552 79.75 104.295 79.75 104.295V100.643C79.75 100.643 79.7616 100.371 79.5144 100.034C79.1783 99.5774 78.2973 99.5746 78.2973 99.5746H71.9676Z" fill="white" stroke="white" stroke-width="1.79594" stroke-miterlimit="1" stroke-linecap="round" stroke-linejoin="round"/>
<path d="M36.3022 44.0415C30.216 53.7795 30.8246 62.9088 36.3022 70.0826" stroke="white" stroke-width="3.59188" stroke-linecap="round"/>
<path d="M28.3901 37.9551C21.5612 52.521 22.2441 66.1765 28.3901 76.907" stroke="white" stroke-width="3.59188" stroke-linecap="round"/>
<path d="M19.8691 33.0864C13.0402 51.2938 13.7231 68.3633 19.8691 81.7763" stroke="white" stroke-width="3.59188" stroke-linecap="round"/>
<path d="M98.9902 44.0415C105.076 53.7795 104.468 62.9088 98.9902 70.0826" stroke="white" stroke-width="3.59188" stroke-linecap="round"/>
<path d="M106.903 37.9551C113.732 52.521 113.049 66.1765 106.903 76.907" stroke="white" stroke-width="3.59188" stroke-linecap="round"/>
<path d="M115.423 33.0864C122.252 51.2938 121.569 68.3633 115.423 81.7763" stroke="white" stroke-width="3.59188" stroke-linecap="round"/>
</svg>
