<svg width="40" height="37" viewBox="0 0 40 37" fill="none" xmlns="http://www.w3.org/2000/svg">
<path d="M21.15 5.72546C21.5014 5.94473 21.6085 6.40737 21.3893 6.75877L17.852 12.4284L26.9683 18.1161L30.5056 12.4465C30.7249 12.0951 31.1875 11.9879 31.5389 12.2072L38.622 16.6264C38.9735 16.8456 39.0806 17.3083 38.8613 17.6597L35.324 23.3293L38.4658 25.2895C38.8172 25.5088 38.9244 25.9714 38.7051 26.3228L35.1926 31.9527C34.9733 32.3039 34.5106 32.4112 34.1593 32.192L31.0175 30.2318L27.902 35.2254C27.6827 35.5767 27.2201 35.6839 26.8687 35.4647L19.7856 31.0455C19.4342 30.8263 19.3272 30.3636 19.5463 30.0122L22.6618 25.0186L13.5455 19.3309L10.43 24.3244C10.2107 24.6757 9.74802 24.7829 9.39665 24.5637L1.60516 19.7026C1.25379 19.4834 1.14672 19.0207 1.36584 18.6693L4.48135 13.6757L1.10344 11.5682C0.752102 11.349 0.645093 10.8863 0.864124 10.5349L4.37663 4.90504C4.59589 4.55361 5.05852 4.44647 5.40994 4.66573L8.78786 6.77323L12.3252 1.1036C12.5444 0.752174 13.0071 0.645031 13.3585 0.864287L21.15 5.72546Z" fill="#691A1A" stroke="#691A1A" stroke-width="1.5" stroke-linejoin="round"/>
</svg>
