<svg width="32" height="35" viewBox="0 0 32 35" fill="none" xmlns="http://www.w3.org/2000/svg">
<path d="M11.3672 1C17.0396 1 21.7354 5.3614 21.7354 10.8574C21.7353 13.0633 20.9721 15.0954 19.6934 16.7314C19.9937 17.0871 20.4038 17.5733 20.8896 18.1504C21.9383 19.396 23.3407 21.066 24.752 22.7627C26.1624 24.4585 27.5855 26.1845 28.6758 27.541C29.2202 28.2184 29.6868 28.8093 30.0283 29.2607C30.1984 29.4856 30.3437 29.6839 30.4541 29.8447C30.509 29.9247 30.5603 30.0046 30.6045 30.0781C30.6218 30.1069 30.6466 30.1491 30.6729 30.2002L30.75 30.375L30.8643 30.7314C30.9687 31.1009 31.0342 31.5036 30.9814 31.9111C30.9024 32.5217 30.5799 33.0046 30.0967 33.3711C29.218 34.0373 27.793 34.3699 26.5 33.3633C26.3731 33.2645 26.2293 33.1143 26.1133 32.9893C25.9787 32.8442 25.8135 32.6587 25.626 32.4424C25.2501 32.0089 24.7646 31.4312 24.2109 30.7627C23.1023 29.4241 21.7058 27.7039 20.3389 26.0078C18.9715 24.3111 17.6314 22.6351 16.6328 21.3838C16.1511 20.7801 15.7483 20.2752 15.4609 19.9141C14.203 20.4285 12.8186 20.7139 11.3672 20.7139C5.69512 20.7136 1.00015 16.3532 1 10.8574C1 5.36156 5.69504 1.00025 11.3672 1Z" fill="#E38D6F" stroke="#AFF6F9" stroke-width="2"/>
</svg>
