<svg width="687" height="399" viewBox="0 0 687 399" fill="none" xmlns="http://www.w3.org/2000/svg">
<path d="M351.528 15.064C345.403 9.34243 335.403 13.6853 335.403 22.0666V103.815C335.403 109.108 331.112 113.398 325.82 113.398H15.9716C10.6791 113.398 6.38867 117.689 6.38867 122.981V382.858C6.38867 388.15 10.6791 392.441 15.9716 392.441H670.806C676.098 392.441 680.389 388.15 680.389 382.858V122.981C680.389 117.689 676.098 113.398 670.806 113.398H460.567C458.138 113.398 455.8 112.476 454.025 110.818L351.528 15.064Z" fill="#C19C8F" stroke="#303348" stroke-width="12.7773" stroke-linejoin="round"/>
<path d="M93.2397 192.049C92.7859 190.579 92.1598 189.263 91.3612 188.102C90.5807 186.922 89.637 185.915 88.5299 185.08C87.4409 184.245 86.1886 183.619 84.7729 183.202C83.3572 182.766 81.8145 182.548 80.1448 182.548C77.1501 182.548 74.4821 183.301 72.1409 184.808C69.7996 186.314 67.9574 188.528 66.6143 191.45C65.2894 194.354 64.627 197.894 64.627 202.068C64.627 206.279 65.2894 209.845 66.6143 212.767C67.9392 215.689 69.7814 217.912 72.1409 219.437C74.5003 220.943 77.2409 221.697 80.3626 221.697C83.1939 221.697 85.6441 221.152 87.7131 220.063C89.8003 218.974 91.4066 217.431 92.5318 215.435C93.6571 213.42 94.2197 211.061 94.2197 208.357L96.5066 208.711H81.3699V200.816H103.993V207.513C103.993 212.286 102.977 216.415 100.944 219.9C98.9114 223.385 96.1163 226.071 92.559 227.958C89.0017 229.828 84.9181 230.762 80.3081 230.762C75.1718 230.762 70.6617 229.61 66.7777 227.305C62.9118 224.982 59.8899 221.688 57.712 217.422C55.5522 213.139 54.4723 208.057 54.4723 202.177C54.4723 197.676 55.1075 193.656 56.378 190.116C57.6666 186.577 59.4634 183.574 61.7684 181.105C64.0734 178.619 66.7777 176.731 69.8812 175.443C72.9848 174.136 76.3606 173.482 80.0087 173.482C83.0941 173.482 85.9708 173.936 88.6388 174.844C91.3067 175.733 93.6752 177.003 95.7443 178.655C97.8315 180.307 99.5466 182.267 100.89 184.535C102.233 186.804 103.113 189.309 103.53 192.049H93.2397ZM139.977 212.413V188.184H149.832V230H140.276V222.568H139.841C138.897 224.909 137.345 226.824 135.185 228.312C133.044 229.8 130.403 230.544 127.263 230.544C124.523 230.544 122.1 229.936 119.994 228.72C117.907 227.486 116.274 225.699 115.094 223.357C113.914 220.998 113.324 218.148 113.324 214.809V188.184H123.18V213.284C123.18 215.934 123.906 218.039 125.357 219.6C126.809 221.161 128.715 221.942 131.075 221.942C132.527 221.942 133.933 221.588 135.294 220.88C136.656 220.172 137.772 219.119 138.643 217.722C139.532 216.306 139.977 214.537 139.977 212.413ZM169.821 205.498V230H159.966V188.184H169.386V195.289H169.876C170.838 192.948 172.371 191.087 174.477 189.708C176.6 188.329 179.223 187.639 182.345 187.639C185.23 187.639 187.744 188.256 189.886 189.49C192.046 190.724 193.715 192.512 194.895 194.853C196.093 197.195 196.683 200.035 196.665 203.375V230H186.809V204.899C186.809 202.104 186.083 199.917 184.631 198.338C183.198 196.759 181.21 195.97 178.669 195.97C176.945 195.97 175.412 196.351 174.068 197.113C172.744 197.857 171.7 198.937 170.938 200.353C170.194 201.768 169.821 203.484 169.821 205.498ZM222.201 230.735C218.916 230.735 215.976 229.891 213.38 228.203C210.785 226.515 208.734 224.065 207.228 220.853C205.721 217.64 204.968 213.738 204.968 209.146C204.968 204.5 205.73 200.58 207.255 197.385C208.798 194.173 210.876 191.75 213.489 190.116C216.103 188.465 219.016 187.639 222.228 187.639C224.678 187.639 226.693 188.056 228.272 188.891C229.851 189.708 231.103 190.697 232.029 191.859C232.955 193.002 233.671 194.082 234.18 195.099H234.588V174.245H244.47V230H234.779V223.412H234.18C233.671 224.428 232.936 225.508 231.974 226.651C231.013 227.777 229.742 228.739 228.163 229.537C226.584 230.336 224.597 230.735 222.201 230.735ZM224.951 222.649C227.038 222.649 228.816 222.087 230.287 220.962C231.757 219.818 232.873 218.23 233.635 216.197C234.397 214.165 234.779 211.796 234.779 209.092C234.779 206.387 234.397 204.037 233.635 202.041C232.891 200.044 231.784 198.492 230.314 197.385C228.862 196.278 227.074 195.725 224.951 195.725C222.755 195.725 220.921 196.296 219.451 197.44C217.981 198.583 216.874 200.162 216.13 202.177C215.386 204.191 215.014 206.496 215.014 209.092C215.014 211.705 215.386 214.038 216.13 216.088C216.892 218.121 218.008 219.727 219.479 220.907C220.967 222.069 222.791 222.649 224.951 222.649ZM273.485 230.817C269.292 230.817 265.671 229.946 262.622 228.203C259.591 226.443 257.259 223.956 255.626 220.744C253.992 217.513 253.175 213.711 253.175 209.337C253.175 205.035 253.992 201.26 255.626 198.011C257.277 194.745 259.582 192.204 262.541 190.389C265.499 188.556 268.975 187.639 272.967 187.639C275.545 187.639 277.977 188.056 280.263 188.891C282.568 189.708 284.601 190.979 286.362 192.703C288.14 194.427 289.538 196.623 290.554 199.291C291.571 201.941 292.079 205.099 292.079 208.765V211.787H257.803V205.144H282.632C282.614 203.257 282.205 201.578 281.407 200.108C280.608 198.62 279.492 197.449 278.058 196.596C276.643 195.743 274.991 195.316 273.104 195.316C271.089 195.316 269.319 195.806 267.795 196.786C266.27 197.748 265.081 199.019 264.228 200.598C263.394 202.159 262.967 203.874 262.949 205.743V211.542C262.949 213.974 263.394 216.061 264.283 217.804C265.172 219.528 266.415 220.853 268.013 221.778C269.61 222.686 271.479 223.139 273.621 223.139C275.055 223.139 276.352 222.94 277.514 222.541C278.675 222.123 279.683 221.515 280.536 220.717C281.389 219.918 282.033 218.929 282.469 217.749L291.67 218.784C291.09 221.216 289.983 223.339 288.349 225.154C286.734 226.951 284.665 228.348 282.142 229.347C279.619 230.327 276.733 230.817 273.485 230.817ZM310.271 174.245V230H300.416V174.245H310.271ZM335.923 230.735C332.638 230.735 329.698 229.891 327.103 228.203C324.507 226.515 322.457 224.065 320.95 220.853C319.444 217.64 318.691 213.738 318.691 209.146C318.691 204.5 319.453 200.58 320.977 197.385C322.52 194.173 324.598 191.75 327.212 190.116C329.825 188.465 332.738 187.639 335.951 187.639C338.401 187.639 340.415 188.056 341.994 188.891C343.574 189.708 344.826 190.697 345.751 191.859C346.677 193.002 347.394 194.082 347.902 195.099H348.311V174.245H358.193V230H348.501V223.412H347.902C347.394 224.428 346.659 225.508 345.697 226.651C344.735 227.777 343.465 228.739 341.886 229.537C340.307 230.336 338.319 230.735 335.923 230.735ZM338.673 222.649C340.76 222.649 342.539 222.087 344.009 220.962C345.479 219.818 346.595 218.23 347.358 216.197C348.12 214.165 348.501 211.796 348.501 209.092C348.501 206.387 348.12 204.037 347.358 202.041C346.614 200.044 345.506 198.492 344.036 197.385C342.584 196.278 340.797 195.725 338.673 195.725C336.477 195.725 334.644 196.296 333.174 197.44C331.704 198.583 330.597 200.162 329.852 202.177C329.108 204.191 328.736 206.496 328.736 209.092C328.736 211.705 329.108 214.038 329.852 216.088C330.615 218.121 331.731 219.727 333.201 220.907C334.689 222.069 336.513 222.649 338.673 222.649ZM368.695 230V188.184H378.55V230H368.695ZM373.649 182.249C372.089 182.249 370.746 181.731 369.62 180.697C368.495 179.644 367.932 178.383 367.932 176.913C367.932 175.424 368.495 174.163 369.62 173.129C370.746 172.076 372.089 171.55 373.649 171.55C375.228 171.55 376.572 172.076 377.679 173.129C378.804 174.163 379.367 175.424 379.367 176.913C379.367 178.383 378.804 179.644 377.679 180.697C376.572 181.731 375.228 182.249 373.649 182.249ZM398.539 205.498V230H388.684V188.184H398.104V195.289H398.594C399.556 192.948 401.089 191.087 403.195 189.708C405.318 188.329 407.941 187.639 411.062 187.639C413.948 187.639 416.462 188.256 418.604 189.49C420.763 190.724 422.433 192.512 423.613 194.853C424.811 197.195 425.401 200.035 425.382 203.375V230H415.527V204.899C415.527 202.104 414.801 199.917 413.349 198.338C411.915 196.759 409.928 195.97 407.387 195.97C405.663 195.97 404.129 196.351 402.786 197.113C401.461 197.857 400.418 198.937 399.655 200.353C398.911 201.768 398.539 203.484 398.539 205.498ZM453.587 246.552C450.048 246.552 447.008 246.071 444.467 245.109C441.926 244.166 439.884 242.895 438.341 241.298C436.798 239.701 435.728 237.931 435.129 235.989L444.004 233.839C444.403 234.655 444.984 235.463 445.746 236.262C446.508 237.078 447.534 237.75 448.822 238.276C450.129 238.821 451.772 239.093 453.75 239.093C456.545 239.093 458.859 238.412 460.692 237.051C462.525 235.708 463.442 233.494 463.442 230.408V222.486H462.952C462.444 223.502 461.7 224.546 460.719 225.617C459.758 226.688 458.478 227.586 456.881 228.312C455.302 229.038 453.314 229.401 450.919 229.401C447.706 229.401 444.793 228.648 442.18 227.141C439.584 225.617 437.515 223.348 435.973 220.335C434.448 217.304 433.686 213.511 433.686 208.956C433.686 204.364 434.448 200.489 435.973 197.331C437.515 194.155 439.593 191.75 442.207 190.116C444.82 188.465 447.733 187.639 450.946 187.639C453.396 187.639 455.411 188.056 456.99 188.891C458.587 189.708 459.857 190.697 460.801 191.859C461.745 193.002 462.462 194.082 462.952 195.099H463.496V188.184H473.215V230.681C473.215 234.256 472.362 237.214 470.656 239.556C468.95 241.897 466.618 243.648 463.66 244.81C460.701 245.972 457.344 246.552 453.587 246.552ZM453.668 221.669C455.756 221.669 457.534 221.161 459.004 220.145C460.474 219.128 461.591 217.667 462.353 215.762C463.115 213.856 463.496 211.569 463.496 208.901C463.496 206.27 463.115 203.965 462.353 201.986C461.609 200.008 460.502 198.474 459.032 197.385C457.58 196.278 455.792 195.725 453.668 195.725C451.472 195.725 449.639 196.296 448.169 197.44C446.699 198.583 445.592 200.153 444.848 202.15C444.104 204.128 443.732 206.378 443.732 208.901C443.732 211.46 444.104 213.702 444.848 215.626C445.61 217.531 446.726 219.02 448.196 220.09C449.685 221.143 451.509 221.669 453.668 221.669ZM501.828 230.817C497.636 230.817 494.015 229.946 490.966 228.203C487.935 226.443 485.602 223.956 483.969 220.744C482.336 217.513 481.519 213.711 481.519 209.337C481.519 205.035 482.336 201.26 483.969 198.011C485.621 194.745 487.926 192.204 490.884 190.389C493.842 188.556 497.318 187.639 501.311 187.639C503.888 187.639 506.32 188.056 508.607 188.891C510.912 189.708 512.945 190.979 514.705 192.703C516.484 194.427 517.881 196.623 518.898 199.291C519.914 201.941 520.422 205.099 520.422 208.765V211.787H486.147V205.144H510.975C510.957 203.257 510.549 201.578 509.75 200.108C508.952 198.62 507.836 197.449 506.402 196.596C504.986 195.743 503.335 195.316 501.447 195.316C499.432 195.316 497.663 195.806 496.138 196.786C494.614 197.748 493.425 199.019 492.572 200.598C491.737 202.159 491.31 203.874 491.292 205.743V211.542C491.292 213.974 491.737 216.061 492.626 217.804C493.516 219.528 494.759 220.853 496.356 221.778C497.953 222.686 499.823 223.139 501.964 223.139C503.398 223.139 504.696 222.94 505.857 222.541C507.019 222.123 508.026 221.515 508.879 220.717C509.732 219.918 510.377 218.929 510.812 217.749L520.014 218.784C519.433 221.216 518.326 223.339 516.693 225.154C515.077 226.951 513.008 228.348 510.485 229.347C507.963 230.327 505.077 230.817 501.828 230.817ZM538.615 205.498V230H528.76V188.184H538.179V195.289H538.669C539.631 192.948 541.165 191.087 543.27 189.708C545.394 188.329 548.016 187.639 551.138 187.639C554.024 187.639 556.538 188.256 558.679 189.49C560.839 190.724 562.509 192.512 563.688 194.853C564.886 197.195 565.476 200.035 565.458 203.375V230H555.603V204.899C555.603 202.104 554.877 199.917 553.425 198.338C551.991 196.759 550.004 195.97 547.463 195.97C545.739 195.97 544.205 196.351 542.862 197.113C541.537 197.857 540.493 198.937 539.731 200.353C538.987 201.768 538.615 203.484 538.615 205.498ZM581.548 230.599C579.896 230.599 578.48 230.018 577.301 228.857C576.121 227.695 575.54 226.279 575.558 224.61C575.54 222.976 576.121 221.579 577.301 220.417C578.48 219.255 579.896 218.675 581.548 218.675C583.145 218.675 584.533 219.255 585.713 220.417C586.911 221.579 587.519 222.976 587.537 224.61C587.519 225.717 587.228 226.724 586.666 227.631C586.121 228.539 585.395 229.265 584.488 229.809C583.598 230.336 582.618 230.599 581.548 230.599ZM581.548 200.761C579.896 200.761 578.48 200.18 577.301 199.019C576.121 197.839 575.54 196.423 575.558 194.772C575.54 193.138 576.121 191.741 577.301 190.579C578.48 189.4 579.896 188.81 581.548 188.81C583.145 188.81 584.533 189.4 585.713 190.579C586.911 191.741 587.519 193.138 587.537 194.772C587.519 195.861 587.228 196.859 586.666 197.766C586.121 198.674 585.395 199.4 584.488 199.944C583.598 200.489 582.618 200.761 581.548 200.761ZM55.888 323V267.245H76.7962C81.0795 267.245 84.6731 267.989 87.577 269.477C90.4991 270.965 92.7042 273.053 94.1925 275.739C95.6989 278.407 96.4521 281.519 96.4521 285.077C96.4521 288.652 95.6898 291.756 94.1653 294.387C92.6589 297.001 90.4356 299.025 87.4953 300.458C84.5551 301.874 80.9434 302.582 76.6601 302.582H61.7684V294.197H75.2989C77.8035 294.197 79.8544 293.852 81.4515 293.162C83.0487 292.454 84.2284 291.429 84.9907 290.086C85.7711 288.725 86.1613 287.055 86.1613 285.077C86.1613 283.098 85.7711 281.41 84.9907 280.013C84.2103 278.597 83.0215 277.526 81.4243 276.8C79.8272 276.056 77.7672 275.684 75.2444 275.684H65.9882V323H55.888ZM84.6912 297.736L98.4939 323H87.2231L73.6654 297.736H84.6912ZM123.227 323.817C119.035 323.817 115.414 322.946 112.365 321.203C109.334 319.443 107.002 316.956 105.368 313.744C103.735 310.513 102.918 306.711 102.918 302.337C102.918 298.035 103.735 294.26 105.368 291.011C107.02 287.745 109.325 285.204 112.283 283.389C115.241 281.556 118.717 280.639 122.71 280.639C125.287 280.639 127.719 281.056 130.006 281.891C132.311 282.708 134.344 283.979 136.104 285.703C137.883 287.427 139.28 289.623 140.297 292.291C141.313 294.941 141.821 298.099 141.821 301.765V304.787H107.546V298.144H132.375C132.356 296.257 131.948 294.578 131.149 293.108C130.351 291.62 129.235 290.449 127.801 289.596C126.385 288.743 124.734 288.316 122.846 288.316C120.831 288.316 119.062 288.806 117.537 289.786C116.013 290.748 114.824 292.019 113.971 293.598C113.136 295.159 112.71 296.874 112.691 298.743V304.542C112.691 306.974 113.136 309.061 114.025 310.804C114.915 312.528 116.158 313.853 117.755 314.778C119.352 315.686 121.222 316.139 123.363 316.139C124.797 316.139 126.095 315.94 127.256 315.541C128.418 315.123 129.425 314.515 130.278 313.717C131.131 312.918 131.776 311.929 132.211 310.749L141.413 311.784C140.832 314.216 139.725 316.339 138.092 318.154C136.476 319.951 134.407 321.348 131.884 322.347C129.362 323.327 126.476 323.817 123.227 323.817ZM150.159 323V281.184H160.014V323H150.159ZM155.114 275.249C153.553 275.249 152.21 274.731 151.084 273.697C149.959 272.644 149.396 271.383 149.396 269.913C149.396 268.424 149.959 267.163 151.084 266.129C152.21 265.076 153.553 264.55 155.114 264.55C156.693 264.55 158.036 265.076 159.143 266.129C160.268 267.163 160.831 268.424 160.831 269.913C160.831 271.383 160.268 272.644 159.143 273.697C158.036 274.731 156.693 275.249 155.114 275.249ZM203.198 292.237L194.214 293.217C193.96 292.309 193.516 291.456 192.88 290.658C192.263 289.859 191.428 289.215 190.376 288.725C189.323 288.235 188.035 287.99 186.51 287.99C184.459 287.99 182.735 288.434 181.337 289.324C179.958 290.213 179.277 291.365 179.296 292.781C179.277 293.997 179.722 294.986 180.63 295.749C181.555 296.511 183.08 297.137 185.203 297.627L192.336 299.152C196.293 300.005 199.233 301.357 201.157 303.208C203.099 305.059 204.079 307.482 204.097 310.477C204.079 313.109 203.307 315.432 201.783 317.446C200.276 319.443 198.18 321.004 195.494 322.129C192.808 323.254 189.722 323.817 186.238 323.817C181.12 323.817 177 322.746 173.878 320.604C170.756 318.444 168.896 315.441 168.297 311.593L177.907 310.667C178.343 312.555 179.268 313.98 180.684 314.942C182.1 315.904 183.942 316.385 186.21 316.385C188.552 316.385 190.43 315.904 191.846 314.942C193.28 313.98 193.997 312.791 193.997 311.375C193.997 310.177 193.534 309.188 192.608 308.408C191.701 307.627 190.285 307.028 188.361 306.611L181.228 305.114C177.217 304.279 174.25 302.872 172.326 300.894C170.402 298.897 169.449 296.375 169.468 293.326C169.449 290.748 170.148 288.516 171.564 286.628C172.998 284.723 174.985 283.253 177.526 282.218C180.085 281.165 183.034 280.639 186.374 280.639C191.274 280.639 195.131 281.683 197.944 283.77C200.775 285.857 202.527 288.679 203.198 292.237ZM230.736 323.817C226.543 323.817 222.922 322.946 219.873 321.203C216.842 319.443 214.51 316.956 212.877 313.744C211.243 310.513 210.426 306.711 210.426 302.337C210.426 298.035 211.243 294.26 212.877 291.011C214.528 287.745 216.833 285.204 219.792 283.389C222.75 281.556 226.226 280.639 230.218 280.639C232.796 280.639 235.228 281.056 237.515 281.891C239.82 282.708 241.852 283.979 243.613 285.703C245.391 287.427 246.789 289.623 247.805 292.291C248.822 294.941 249.33 298.099 249.33 301.765V304.787H215.055V298.144H239.883C239.865 296.257 239.457 294.578 238.658 293.108C237.859 291.62 236.743 290.449 235.309 289.596C233.894 288.743 232.242 288.316 230.355 288.316C228.34 288.316 226.57 288.806 225.046 289.786C223.521 290.748 222.333 292.019 221.48 293.598C220.645 295.159 220.218 296.874 220.2 298.743V304.542C220.2 306.974 220.645 309.061 221.534 310.804C222.423 312.528 223.667 313.853 225.264 314.778C226.861 315.686 228.73 316.139 230.872 316.139C232.306 316.139 233.603 315.94 234.765 315.541C235.927 315.123 236.934 314.515 237.787 313.717C238.64 312.918 239.284 311.929 239.72 310.749L248.922 311.784C248.341 314.216 247.234 316.339 245.6 318.154C243.985 319.951 241.916 321.348 239.393 322.347C236.87 323.327 233.985 323.817 230.736 323.817ZM267.523 298.498V323H257.667V281.184H267.087V288.289H267.577C268.539 285.948 270.073 284.087 272.178 282.708C274.301 281.329 276.924 280.639 280.046 280.639C282.931 280.639 285.445 281.256 287.587 282.49C289.747 283.724 291.416 285.512 292.596 287.853C293.794 290.195 294.384 293.035 294.366 296.375V323H284.51V297.899C284.51 295.104 283.784 292.917 282.333 291.338C280.899 289.759 278.911 288.97 276.37 288.97C274.646 288.97 273.113 289.351 271.77 290.113C270.445 290.857 269.401 291.937 268.639 293.353C267.895 294.768 267.523 296.484 267.523 298.498Z" fill="#F5F5F5"/>
</svg>
