<svg width="215" height="138" viewBox="0 0 215 138" fill="none" xmlns="http://www.w3.org/2000/svg">
<path d="M105 2V37.5H2V135.5H213V37.5H143L105 2Z" fill="#F77B4F" stroke="#691A1A" stroke-width="4" stroke-linejoin="round"/>
<path d="M20.9176 78V60.5455H31.8608V62.8125H23.5511V68.1307H31.2898V70.3892H23.5511V75.733H31.9631V78H20.9176ZM35.174 78V64.9091H37.7223V78H35.174ZM36.4609 62.8892C36.0178 62.8892 35.6371 62.7415 35.3189 62.446C35.0064 62.1449 34.8501 61.7869 34.8501 61.3722C34.8501 60.9517 35.0064 60.5937 35.3189 60.2983C35.6371 59.9972 36.0178 59.8466 36.4609 59.8466C36.9041 59.8466 37.282 59.9972 37.5945 60.2983C37.9126 60.5937 38.0717 60.9517 38.0717 61.3722C38.0717 61.7869 37.9126 62.1449 37.5945 62.446C37.282 62.7415 36.9041 62.8892 36.4609 62.8892ZM43.6989 70.2273V78H41.1506V64.9091H43.5966V67.0398H43.7585C44.0597 66.3466 44.5313 65.7898 45.1733 65.3693C45.821 64.9489 46.6364 64.7386 47.6193 64.7386C48.5114 64.7386 49.2926 64.9261 49.9631 65.3011C50.6335 65.6705 51.1534 66.2216 51.5227 66.9545C51.892 67.6875 52.0767 68.5937 52.0767 69.6733V78H49.5284V69.9801C49.5284 69.0312 49.2813 68.2898 48.7869 67.7557C48.2926 67.2159 47.6136 66.946 46.75 66.946C46.1591 66.946 45.6335 67.0739 45.1733 67.3295C44.7188 67.5852 44.358 67.9602 44.0909 68.4545C43.8295 68.9432 43.6989 69.5341 43.6989 70.2273ZM61.7244 64.9091V66.9545H54.3267V64.9091H61.7244ZM56.3551 78V63.392C56.3551 62.5739 56.5341 61.8949 56.892 61.3551C57.25 60.8097 57.7244 60.4034 58.3153 60.1364C58.9063 59.8636 59.5483 59.7273 60.2415 59.7273C60.7528 59.7273 61.1903 59.7699 61.554 59.8551C61.9176 59.9347 62.1875 60.0085 62.3636 60.0767L61.767 62.1392C61.6477 62.1051 61.4943 62.0653 61.3068 62.0199C61.1193 61.9687 60.892 61.9432 60.625 61.9432C60.0057 61.9432 59.5625 62.0966 59.2955 62.4034C59.0341 62.7102 58.9034 63.1534 58.9034 63.733V78H56.3551ZM72.6463 72.571V64.9091H75.2031V78H72.6974V75.733H72.5611C72.2599 76.4318 71.777 77.0142 71.1122 77.4801C70.4531 77.9403 69.6321 78.1705 68.6491 78.1705C67.8082 78.1705 67.0639 77.9858 66.4162 77.6165C65.7741 77.2415 65.2685 76.6875 64.8991 75.9545C64.5355 75.2216 64.3537 74.3153 64.3537 73.2358V64.9091H66.902V72.929C66.902 73.821 67.1491 74.5312 67.6435 75.0597C68.1378 75.5881 68.7798 75.8523 69.5696 75.8523C70.0469 75.8523 70.5213 75.733 70.9929 75.4943C71.4702 75.2557 71.8651 74.8949 72.1776 74.4119C72.4957 73.929 72.652 73.3153 72.6463 72.571ZM67.294 62.8551C66.8906 62.8551 66.5384 62.7074 66.2372 62.4119C65.9361 62.1108 65.7855 61.7642 65.7855 61.3722C65.7855 60.946 65.9361 60.5909 66.2372 60.3068C66.5384 60.0227 66.8906 59.8807 67.294 59.8807C67.7202 59.8807 68.0753 60.0227 68.3594 60.3068C68.6491 60.5909 68.794 60.946 68.794 61.3722C68.794 61.7642 68.6491 62.1108 68.3594 62.4119C68.0753 62.7074 67.7202 62.8551 67.294 62.8551ZM72.3054 62.8551C71.902 62.8551 71.5497 62.7074 71.2486 62.4119C70.9474 62.1108 70.7969 61.7642 70.7969 61.3722C70.7969 60.946 70.9474 60.5909 71.2486 60.3068C71.5497 60.0227 71.902 59.8807 72.3054 59.8807C72.7315 59.8807 73.0866 60.0227 73.3707 60.3068C73.6605 60.5909 73.8054 60.946 73.8054 61.3722C73.8054 61.7642 73.6605 62.1108 73.3707 62.4119C73.0866 62.7074 72.7315 62.8551 72.3054 62.8551ZM81.1754 70.2273V78H78.6271V60.5455H81.1413V67.0398H81.3033C81.6101 66.3352 82.0788 65.7756 82.7095 65.3608C83.3402 64.946 84.1641 64.7386 85.1811 64.7386C86.0788 64.7386 86.8629 64.9233 87.5334 65.2926C88.2095 65.6619 88.7322 66.2131 89.1016 66.946C89.4766 67.6733 89.6641 68.5824 89.6641 69.6733V78H87.1158V69.9801C87.1158 69.0199 86.8686 68.2756 86.3743 67.7472C85.88 67.2131 85.1925 66.946 84.3118 66.946C83.7095 66.946 83.1697 67.0739 82.6925 67.3295C82.2209 67.5852 81.8487 67.9602 81.576 68.4545C81.3089 68.9432 81.1754 69.5341 81.1754 70.2273ZM93.0646 78V64.9091H95.5277V66.9886H95.6641C95.9027 66.2841 96.3232 65.7301 96.9254 65.3267C97.5334 64.9176 98.2209 64.7131 98.9879 64.7131C99.147 64.7131 99.3345 64.7187 99.5504 64.7301C99.772 64.7415 99.9453 64.7557 100.07 64.7727V67.2102C99.968 67.1818 99.7862 67.1506 99.5249 67.1165C99.2635 67.0767 99.0021 67.0568 98.7408 67.0568C98.1385 67.0568 97.6016 67.1847 97.13 67.4403C96.6641 67.6903 96.2947 68.0398 96.022 68.4886C95.7493 68.9318 95.6129 69.4375 95.6129 70.0057V78H93.0646ZM110.568 72.571V64.9091H113.125V78H110.619V75.733H110.483C110.182 76.4318 109.699 77.0142 109.034 77.4801C108.375 77.9403 107.554 78.1705 106.571 78.1705C105.73 78.1705 104.986 77.9858 104.338 77.6165C103.696 77.2415 103.19 76.6875 102.821 75.9545C102.457 75.2216 102.276 74.3153 102.276 73.2358V64.9091H104.824V72.929C104.824 73.821 105.071 74.5312 105.565 75.0597C106.06 75.5881 106.702 75.8523 107.491 75.8523C107.969 75.8523 108.443 75.733 108.915 75.4943C109.392 75.2557 109.787 74.8949 110.099 74.4119C110.418 73.929 110.574 73.3153 110.568 72.571ZM119.097 70.2273V78H116.549V64.9091H118.995V67.0398H119.157C119.458 66.3466 119.93 65.7898 120.572 65.3693C121.219 64.9489 122.035 64.7386 123.018 64.7386C123.91 64.7386 124.691 64.9261 125.362 65.3011C126.032 65.6705 126.552 66.2216 126.921 66.9545C127.29 67.6875 127.475 68.5937 127.475 69.6733V78H124.927V69.9801C124.927 69.0312 124.68 68.2898 124.185 67.7557C123.691 67.2159 123.012 66.946 122.148 66.946C121.558 66.946 121.032 67.0739 120.572 67.3295C120.117 67.5852 119.756 67.9602 119.489 68.4545C119.228 68.9432 119.097 69.5341 119.097 70.2273ZM136.381 83.1818C135.342 83.1818 134.447 83.0455 133.697 82.7727C132.952 82.5 132.344 82.1392 131.873 81.6903C131.401 81.2415 131.049 80.75 130.816 80.2159L133.006 79.3125C133.16 79.5625 133.364 79.8267 133.62 80.1051C133.881 80.3892 134.234 80.6307 134.677 80.8295C135.126 81.0284 135.702 81.1278 136.407 81.1278C137.373 81.1278 138.171 80.892 138.802 80.4205C139.433 79.9545 139.748 79.2102 139.748 78.1875V75.6136H139.586C139.433 75.892 139.211 76.2017 138.921 76.5426C138.637 76.8835 138.245 77.179 137.745 77.429C137.245 77.679 136.594 77.804 135.793 77.804C134.759 77.804 133.827 77.5625 132.998 77.0795C132.174 76.5909 131.521 75.8722 131.038 74.9233C130.56 73.9687 130.322 72.7955 130.322 71.4034C130.322 70.0114 130.558 68.8182 131.029 67.8239C131.506 66.8295 132.16 66.0682 132.989 65.5398C133.819 65.0057 134.759 64.7386 135.81 64.7386C136.623 64.7386 137.279 64.875 137.779 65.1477C138.279 65.4148 138.668 65.7273 138.947 66.0852C139.231 66.4432 139.45 66.7585 139.603 67.0312H139.79V64.9091H142.288V78.2898C142.288 79.4148 142.026 80.3381 141.504 81.0597C140.981 81.7813 140.273 82.3153 139.381 82.6619C138.495 83.0085 137.495 83.1818 136.381 83.1818ZM136.356 75.6903C137.089 75.6903 137.708 75.5199 138.214 75.179C138.725 74.8324 139.112 74.3381 139.373 73.696C139.64 73.0483 139.773 72.2727 139.773 71.3693C139.773 70.4886 139.643 69.7131 139.381 69.0426C139.12 68.3722 138.737 67.8494 138.231 67.4744C137.725 67.0937 137.1 66.9034 136.356 66.9034C135.589 66.9034 134.95 67.1023 134.438 67.5C133.927 67.892 133.54 68.4261 133.279 69.1023C133.023 69.7784 132.896 70.5341 132.896 71.3693C132.896 72.2273 133.026 72.9801 133.288 73.6278C133.549 74.2756 133.935 74.7812 134.447 75.1449C134.964 75.5085 135.6 75.6903 136.356 75.6903ZM156.957 78.2557C155.901 78.2557 154.957 77.9858 154.128 77.446C153.304 76.9006 152.656 76.125 152.185 75.1193C151.719 74.108 151.486 72.8949 151.486 71.4801C151.486 70.0653 151.722 68.8551 152.193 67.8494C152.67 66.8437 153.324 66.0739 154.153 65.5398C154.983 65.0057 155.923 64.7386 156.974 64.7386C157.787 64.7386 158.44 64.875 158.935 65.1477C159.435 65.4148 159.821 65.7273 160.094 66.0852C160.372 66.4432 160.588 66.7585 160.741 67.0312H160.895V60.5455H163.443V78H160.955V75.9631H160.741C160.588 76.2415 160.366 76.5597 160.077 76.9176C159.793 77.2756 159.401 77.5881 158.901 77.8551C158.401 78.1222 157.753 78.2557 156.957 78.2557ZM157.52 76.0824C158.253 76.0824 158.872 75.8892 159.378 75.5028C159.889 75.1108 160.276 74.5682 160.537 73.875C160.804 73.1818 160.938 72.375 160.938 71.4545C160.938 70.5455 160.807 69.75 160.545 69.0682C160.284 68.3864 159.901 67.8551 159.395 67.4744C158.889 67.0937 158.264 66.9034 157.52 66.9034C156.753 66.9034 156.114 67.1023 155.602 67.5C155.091 67.8977 154.705 68.4403 154.443 69.1278C154.188 69.8153 154.06 70.5909 154.06 71.4545C154.06 72.3295 154.19 73.1165 154.452 73.8153C154.713 74.5142 155.099 75.0682 155.611 75.4773C156.128 75.8807 156.764 76.0824 157.52 76.0824ZM172.722 78.2642C171.433 78.2642 170.322 77.9886 169.39 77.4375C168.464 76.8807 167.748 76.0994 167.242 75.0938C166.742 74.0824 166.492 72.8977 166.492 71.5398C166.492 70.1989 166.742 69.017 167.242 67.9943C167.748 66.9716 168.452 66.1733 169.356 65.5994C170.265 65.0256 171.327 64.7386 172.543 64.7386C173.282 64.7386 173.998 64.8608 174.691 65.1051C175.384 65.3494 176.006 65.733 176.558 66.2557C177.109 66.7784 177.543 67.4574 177.862 68.2926C178.18 69.1222 178.339 70.1307 178.339 71.3182V72.2216H167.933V70.3125H175.842C175.842 69.642 175.705 69.0483 175.433 68.5312C175.16 68.0085 174.776 67.5966 174.282 67.2955C173.793 66.9943 173.219 66.8438 172.56 66.8438C171.844 66.8438 171.219 67.0199 170.685 67.3722C170.157 67.7187 169.748 68.1733 169.458 68.7358C169.174 69.2926 169.032 69.8977 169.032 70.5511V72.0426C169.032 72.9176 169.185 73.6619 169.492 74.2756C169.805 74.8892 170.239 75.358 170.796 75.6818C171.353 76 172.004 76.1591 172.748 76.1591C173.231 76.1591 173.671 76.0909 174.069 75.9545C174.467 75.8125 174.81 75.6023 175.1 75.3239C175.39 75.0455 175.612 74.7017 175.765 74.2926L178.177 74.7273C177.984 75.4375 177.637 76.0597 177.137 76.5938C176.643 77.1222 176.021 77.5341 175.271 77.8295C174.526 78.1193 173.677 78.2642 172.722 78.2642ZM181.166 78V64.9091H183.629V66.9886H183.766C184.004 66.2841 184.425 65.7301 185.027 65.3267C185.635 64.9176 186.322 64.7131 187.089 64.7131C187.249 64.7131 187.436 64.7187 187.652 64.7301C187.874 64.7415 188.047 64.7557 188.172 64.7727V67.2102C188.07 67.1818 187.888 67.1506 187.626 67.1165C187.365 67.0767 187.104 67.0568 186.842 67.0568C186.24 67.0568 185.703 67.1847 185.232 67.4403C184.766 67.6903 184.396 68.0398 184.124 68.4886C183.851 68.9318 183.714 69.4375 183.714 70.0057V78H181.166ZM20.9176 107V89.5455H23.5511V104.733H31.4602V107H20.9176ZM38.0696 107.29C37.2401 107.29 36.4901 107.136 35.8196 106.83C35.1491 106.517 34.6179 106.065 34.2259 105.474C33.8395 104.884 33.6463 104.159 33.6463 103.301C33.6463 102.562 33.7884 101.955 34.0724 101.477C34.3565 101 34.7401 100.622 35.223 100.344C35.706 100.065 36.2457 99.8551 36.8423 99.7131C37.4389 99.571 38.0469 99.4631 38.6662 99.3892C39.4503 99.2983 40.0866 99.2244 40.5753 99.1676C41.0639 99.1051 41.419 99.0057 41.6406 98.8693C41.8622 98.733 41.973 98.5114 41.973 98.2045V98.1449C41.973 97.4006 41.7628 96.8239 41.3423 96.4148C40.9276 96.0057 40.3082 95.8011 39.4844 95.8011C38.6264 95.8011 37.9503 95.9915 37.456 96.3722C36.9673 96.7472 36.6293 97.1648 36.4418 97.625L34.0469 97.0795C34.331 96.2841 34.7457 95.642 35.2912 95.1534C35.8423 94.6591 36.4759 94.3011 37.1918 94.0795C37.9077 93.8523 38.6605 93.7386 39.4503 93.7386C39.973 93.7386 40.527 93.8011 41.1122 93.9261C41.7031 94.0455 42.2543 94.267 42.7656 94.5909C43.2827 94.9148 43.706 95.3778 44.0355 95.9801C44.3651 96.5767 44.5298 97.3523 44.5298 98.3068V107H42.0412V105.21H41.9389C41.7741 105.54 41.527 105.864 41.1974 106.182C40.8679 106.5 40.4446 106.764 39.9276 106.974C39.4105 107.185 38.7912 107.29 38.0696 107.29ZM38.6236 105.244C39.3281 105.244 39.9304 105.105 40.4304 104.827C40.9361 104.548 41.3196 104.185 41.581 103.736C41.848 103.281 41.9815 102.795 41.9815 102.278V100.591C41.8906 100.682 41.7145 100.767 41.4531 100.847C41.1974 100.92 40.9048 100.986 40.5753 101.043C40.2457 101.094 39.9247 101.142 39.6122 101.188C39.2997 101.227 39.0384 101.261 38.8281 101.29C38.3338 101.352 37.8821 101.457 37.473 101.605C37.0696 101.753 36.7457 101.966 36.5014 102.244C36.2628 102.517 36.1435 102.881 36.1435 103.335C36.1435 103.966 36.3764 104.443 36.8423 104.767C37.3082 105.085 37.902 105.244 38.6236 105.244ZM56.2166 101.571V93.9091H58.7734V107H56.2678V104.733H56.1314C55.8303 105.432 55.3473 106.014 54.6825 106.48C54.0234 106.94 53.2024 107.17 52.2195 107.17C51.3786 107.17 50.6342 106.986 49.9865 106.616C49.3445 106.241 48.8388 105.688 48.4695 104.955C48.1058 104.222 47.924 103.315 47.924 102.236V93.9091H50.4723V101.929C50.4723 102.821 50.7195 103.531 51.2138 104.06C51.7081 104.588 52.3501 104.852 53.1399 104.852C53.6172 104.852 54.0916 104.733 54.5632 104.494C55.0405 104.256 55.4354 103.895 55.7479 103.412C56.0661 102.929 56.2223 102.315 56.2166 101.571ZM68.3082 93.9091V95.9545H61.1577V93.9091H68.3082ZM63.0753 90.7727H65.6236V103.156C65.6236 103.651 65.6974 104.023 65.8452 104.273C65.9929 104.517 66.1832 104.685 66.4162 104.776C66.6548 104.861 66.9134 104.903 67.1918 104.903C67.3963 104.903 67.5753 104.889 67.7287 104.861C67.8821 104.832 68.0014 104.81 68.0866 104.793L68.5469 106.898C68.3991 106.955 68.1889 107.011 67.9162 107.068C67.6435 107.131 67.3026 107.165 66.8935 107.17C66.223 107.182 65.598 107.062 65.0185 106.812C64.4389 106.562 63.9702 106.176 63.6122 105.653C63.2543 105.131 63.0753 104.474 63.0753 103.685V90.7727ZM76.4751 112.182C75.4354 112.182 74.5405 112.045 73.7905 111.773C73.0462 111.5 72.4382 111.139 71.9666 110.69C71.495 110.241 71.1428 109.75 70.9098 109.216L73.1001 108.312C73.2536 108.562 73.4581 108.827 73.7138 109.105C73.9751 109.389 74.3274 109.631 74.7706 109.83C75.2195 110.028 75.7962 110.128 76.5007 110.128C77.4666 110.128 78.2649 109.892 78.8956 109.42C79.5263 108.955 79.8416 108.21 79.8416 107.188V104.614H79.6797C79.5263 104.892 79.3047 105.202 79.0149 105.543C78.7308 105.884 78.3388 106.179 77.8388 106.429C77.3388 106.679 76.6882 106.804 75.8871 106.804C74.853 106.804 73.9212 106.562 73.0916 106.08C72.2678 105.591 71.6143 104.872 71.1314 103.923C70.6541 102.969 70.4155 101.795 70.4155 100.403C70.4155 99.0114 70.6513 97.8182 71.1229 96.8239C71.6001 95.8295 72.2536 95.0682 73.0831 94.5398C73.9126 94.0057 74.853 93.7386 75.9041 93.7386C76.7166 93.7386 77.3729 93.875 77.8729 94.1477C78.3729 94.4148 78.7621 94.7273 79.0405 95.0852C79.3246 95.4432 79.5433 95.7585 79.6967 96.0312H79.8842V93.9091H82.3814V107.29C82.3814 108.415 82.12 109.338 81.5973 110.06C81.0746 110.781 80.3672 111.315 79.4751 111.662C78.5888 112.009 77.5888 112.182 76.4751 112.182ZM76.4496 104.69C77.1825 104.69 77.8018 104.52 78.3075 104.179C78.8189 103.832 79.2053 103.338 79.4666 102.696C79.7337 102.048 79.8672 101.273 79.8672 100.369C79.8672 99.4886 79.7365 98.7131 79.4751 98.0426C79.2138 97.3722 78.8303 96.8494 78.3246 96.4744C77.8189 96.0937 77.1939 95.9034 76.4496 95.9034C75.6825 95.9034 75.0433 96.1023 74.532 96.5C74.0206 96.892 73.6342 97.4261 73.3729 98.1023C73.1172 98.7784 72.9893 99.5341 72.9893 100.369C72.9893 101.227 73.12 101.98 73.3814 102.628C73.6428 103.276 74.0291 103.781 74.5405 104.145C75.0575 104.509 75.6939 104.69 76.4496 104.69ZM91.4411 107.264C90.1513 107.264 89.0405 106.989 88.1087 106.438C87.1825 105.881 86.4666 105.099 85.9609 104.094C85.4609 103.082 85.2109 101.898 85.2109 100.54C85.2109 99.1989 85.4609 98.017 85.9609 96.9943C86.4666 95.9716 87.1712 95.1733 88.0746 94.5994C88.9837 94.0256 90.0462 93.7386 91.2621 93.7386C92.0007 93.7386 92.7166 93.8608 93.4098 94.1051C94.103 94.3494 94.7251 94.733 95.2763 95.2557C95.8274 95.7784 96.2621 96.4574 96.5803 97.2926C96.8984 98.1222 97.0575 99.1307 97.0575 100.318V101.222H86.6513V99.3125H94.5604C94.5604 98.642 94.424 98.0483 94.1513 97.5312C93.8786 97.0085 93.495 96.5966 93.0007 96.2955C92.5121 95.9943 91.9382 95.8438 91.2791 95.8438C90.5632 95.8438 89.9382 96.0199 89.4041 96.3722C88.8757 96.7187 88.4666 97.1733 88.1768 97.7358C87.8928 98.2926 87.7507 98.8977 87.7507 99.5511V101.043C87.7507 101.918 87.9041 102.662 88.2109 103.276C88.5234 103.889 88.9581 104.358 89.5149 104.682C90.0717 105 90.7223 105.159 91.4666 105.159C91.9496 105.159 92.3899 105.091 92.7876 104.955C93.1854 104.812 93.5291 104.602 93.8189 104.324C94.1087 104.045 94.3303 103.702 94.4837 103.293L96.8956 103.727C96.7024 104.437 96.3558 105.06 95.8558 105.594C95.3615 106.122 94.7393 106.534 93.9893 106.83C93.245 107.119 92.3956 107.264 91.4411 107.264ZM109.695 97.1051L107.385 97.5142C107.288 97.2187 107.135 96.9375 106.925 96.6705C106.72 96.4034 106.442 96.1847 106.089 96.0142C105.737 95.8437 105.297 95.7585 104.768 95.7585C104.047 95.7585 103.445 95.9205 102.962 96.2443C102.479 96.5625 102.237 96.9744 102.237 97.4801C102.237 97.9176 102.399 98.2699 102.723 98.5369C103.047 98.804 103.57 99.0227 104.291 99.1932L106.371 99.6705C107.575 99.9489 108.473 100.378 109.064 100.957C109.655 101.537 109.95 102.29 109.95 103.216C109.95 104 109.723 104.699 109.268 105.312C108.82 105.92 108.192 106.398 107.385 106.744C106.584 107.091 105.655 107.264 104.598 107.264C103.132 107.264 101.936 106.952 101.01 106.327C100.084 105.696 99.5156 104.801 99.3054 103.642L101.768 103.267C101.922 103.909 102.237 104.395 102.714 104.724C103.192 105.048 103.814 105.21 104.581 105.21C105.416 105.21 106.084 105.037 106.584 104.69C107.084 104.338 107.334 103.909 107.334 103.403C107.334 102.994 107.18 102.651 106.874 102.372C106.572 102.094 106.109 101.884 105.484 101.741L103.268 101.256C102.047 100.977 101.143 100.534 100.558 99.9261C99.9787 99.3182 99.6889 98.5483 99.6889 97.6165C99.6889 96.8437 99.9048 96.1676 100.337 95.5881C100.768 95.0085 101.365 94.5568 102.126 94.233C102.888 93.9034 103.76 93.7386 104.743 93.7386C106.158 93.7386 107.271 94.0455 108.084 94.6591C108.896 95.267 109.433 96.0824 109.695 97.1051ZM118.394 107.264C117.104 107.264 115.994 106.989 115.062 106.438C114.136 105.881 113.42 105.099 112.914 104.094C112.414 103.082 112.164 101.898 112.164 100.54C112.164 99.1989 112.414 98.017 112.914 96.9943C113.42 95.9716 114.124 95.1733 115.028 94.5994C115.937 94.0256 116.999 93.7386 118.215 93.7386C118.954 93.7386 119.67 93.8608 120.363 94.1051C121.056 94.3494 121.678 94.733 122.229 95.2557C122.781 95.7784 123.215 96.4574 123.533 97.2926C123.852 98.1222 124.011 99.1307 124.011 100.318V101.222H113.604V99.3125H121.513C121.513 98.642 121.377 98.0483 121.104 97.5312C120.832 97.0085 120.448 96.5966 119.954 96.2955C119.465 95.9943 118.891 95.8438 118.232 95.8438C117.516 95.8438 116.891 96.0199 116.357 96.3722C115.829 96.7187 115.42 97.1733 115.13 97.7358C114.846 98.2926 114.704 98.8977 114.704 99.5511V101.043C114.704 101.918 114.857 102.662 115.164 103.276C115.477 103.889 115.911 104.358 116.468 104.682C117.025 105 117.675 105.159 118.42 105.159C118.903 105.159 119.343 105.091 119.741 104.955C120.138 104.812 120.482 104.602 120.772 104.324C121.062 104.045 121.283 103.702 121.437 103.293L123.849 103.727C123.656 104.437 123.309 105.06 122.809 105.594C122.315 106.122 121.692 106.534 120.942 106.83C120.198 107.119 119.349 107.264 118.394 107.264ZM132.949 93.9091V95.9545H125.798V93.9091H132.949ZM127.716 90.7727H130.264V103.156C130.264 103.651 130.338 104.023 130.486 104.273C130.634 104.517 130.824 104.685 131.057 104.776C131.295 104.861 131.554 104.903 131.832 104.903C132.037 104.903 132.216 104.889 132.369 104.861C132.523 104.832 132.642 104.81 132.727 104.793L133.188 106.898C133.04 106.955 132.83 107.011 132.557 107.068C132.284 107.131 131.943 107.165 131.534 107.17C130.864 107.182 130.239 107.062 129.659 106.812C129.08 106.562 128.611 106.176 128.253 105.653C127.895 105.131 127.716 104.474 127.716 103.685V90.7727ZM135.495 107V105.253L142.586 96.2443V96.125H135.725V93.9091H145.765V95.767L138.947 104.665V104.784H146.004V107H135.495ZM154.277 107.264C152.987 107.264 151.876 106.989 150.945 106.438C150.018 105.881 149.303 105.099 148.797 104.094C148.297 103.082 148.047 101.898 148.047 100.54C148.047 99.1989 148.297 98.017 148.797 96.9943C149.303 95.9716 150.007 95.1733 150.911 94.5994C151.82 94.0256 152.882 93.7386 154.098 93.7386C154.837 93.7386 155.553 93.8608 156.246 94.1051C156.939 94.3494 157.561 94.733 158.112 95.2557C158.663 95.7784 159.098 96.4574 159.416 97.2926C159.734 98.1222 159.893 99.1307 159.893 100.318V101.222H149.487V99.3125H157.396C157.396 98.642 157.26 98.0483 156.987 97.5312C156.714 97.0085 156.331 96.5966 155.837 96.2955C155.348 95.9943 154.774 95.8438 154.115 95.8438C153.399 95.8438 152.774 96.0199 152.24 96.3722C151.712 96.7187 151.303 97.1733 151.013 97.7358C150.729 98.2926 150.587 98.8977 150.587 99.5511V101.043C150.587 101.918 150.74 102.662 151.047 103.276C151.359 103.889 151.794 104.358 152.351 104.682C152.908 105 153.558 105.159 154.303 105.159C154.786 105.159 155.226 105.091 155.624 104.955C156.021 104.812 156.365 104.602 156.655 104.324C156.945 104.045 157.166 103.702 157.32 103.293L159.732 103.727C159.538 104.437 159.192 105.06 158.692 105.594C158.197 106.122 157.575 106.534 156.825 106.83C156.081 107.119 155.232 107.264 154.277 107.264Z" fill="#F5F5F5"/>
</svg>
