<svg width="687" height="488" viewBox="0 0 687 488" fill="none" xmlns="http://www.w3.org/2000/svg">
<path d="M351.528 15.064C345.403 9.34243 335.403 13.6853 335.403 22.0666V103.815C335.403 109.108 331.112 113.398 325.82 113.398H15.9716C10.6791 113.398 6.38867 117.689 6.38867 122.981L6.38867 471.858C6.38867 477.15 10.6791 481.441 15.9716 481.441H670.806C676.098 481.441 680.389 477.15 680.389 471.858V122.981C680.389 117.689 676.098 113.398 670.806 113.398H460.567C458.138 113.398 455.8 112.476 454.025 110.818L351.528 15.064Z" fill="#F77B4F" stroke="#303348" stroke-width="12.7773" stroke-linejoin="round"/>
<path d="M62.048 229H51.2671L70.8958 173.245H83.3645L103.02 229H92.2397L77.348 184.679H76.9124L62.048 229ZM62.4019 207.139H91.8041V215.252H62.4019V207.139ZM119.784 173.245V229H109.929V173.245H119.784ZM150.799 187.184V194.806H126.76V187.184H150.799ZM132.695 177.165H142.55V216.422C142.55 217.747 142.75 218.764 143.149 219.472C143.566 220.161 144.111 220.633 144.782 220.887C145.454 221.141 146.198 221.268 147.015 221.268C147.632 221.268 148.195 221.223 148.703 221.132C149.229 221.041 149.628 220.96 149.901 220.887L151.561 228.592C151.035 228.773 150.282 228.973 149.302 229.191C148.34 229.408 147.16 229.535 145.763 229.572C143.294 229.644 141.071 229.272 139.093 228.456C137.114 227.621 135.544 226.332 134.383 224.59C133.239 222.847 132.677 220.669 132.695 218.056V177.165ZM191.492 198.237L182.508 199.217C182.254 198.309 181.81 197.456 181.174 196.658C180.557 195.859 179.723 195.215 178.67 194.725C177.617 194.235 176.329 193.99 174.804 193.99C172.753 193.99 171.029 194.434 169.631 195.324C168.252 196.213 167.571 197.365 167.59 198.781C167.571 199.997 168.016 200.986 168.924 201.749C169.849 202.511 171.374 203.137 173.497 203.627L180.63 205.152C184.587 206.005 187.527 207.357 189.451 209.208C191.393 211.059 192.373 213.482 192.391 216.477C192.373 219.109 191.601 221.432 190.077 223.446C188.57 225.443 186.474 227.004 183.788 228.129C181.102 229.254 178.016 229.817 174.532 229.817C169.414 229.817 165.294 228.746 162.172 226.604C159.05 224.444 157.19 221.441 156.591 217.593L166.201 216.667C166.637 218.555 167.562 219.98 168.978 220.942C170.394 221.904 172.236 222.385 174.505 222.385C176.846 222.385 178.724 221.904 180.14 220.942C181.574 219.98 182.291 218.791 182.291 217.375C182.291 216.177 181.828 215.188 180.902 214.408C179.995 213.627 178.579 213.028 176.655 212.611L169.523 211.114C165.511 210.279 162.544 208.872 160.62 206.894C158.696 204.897 157.743 202.375 157.762 199.326C157.743 196.748 158.442 194.516 159.858 192.628C161.292 190.723 163.279 189.253 165.82 188.218C168.379 187.165 171.328 186.639 174.668 186.639C179.568 186.639 183.425 187.683 186.238 189.77C189.07 191.857 190.821 194.679 191.492 198.237ZM221.398 187.184V194.806H197.359V187.184H221.398ZM203.294 177.165H213.149V216.422C213.149 217.747 213.349 218.764 213.748 219.472C214.166 220.161 214.71 220.633 215.382 220.887C216.053 221.141 216.797 221.268 217.614 221.268C218.231 221.268 218.794 221.223 219.302 221.132C219.828 221.041 220.228 220.96 220.5 220.887L222.161 228.592C221.634 228.773 220.881 228.973 219.901 229.191C218.939 229.408 217.759 229.535 216.362 229.572C213.894 229.644 211.67 229.272 209.692 228.456C207.714 227.621 206.144 226.332 204.982 224.59C203.839 222.847 203.276 220.669 203.294 218.056V177.165ZM241.674 229.844C239.024 229.844 236.637 229.372 234.514 228.428C232.408 227.466 230.739 226.051 229.504 224.181C228.288 222.312 227.68 220.007 227.68 217.266C227.68 214.907 228.116 212.956 228.987 211.413C229.858 209.87 231.047 208.636 232.553 207.711C234.06 206.785 235.757 206.086 237.644 205.614C239.55 205.124 241.519 204.77 243.552 204.553C246.002 204.299 247.99 204.072 249.514 203.872C251.039 203.654 252.146 203.328 252.836 202.892C253.543 202.438 253.897 201.739 253.897 200.796V200.632C253.897 198.581 253.289 196.993 252.073 195.868C250.857 194.743 249.106 194.18 246.819 194.18C244.405 194.18 242.49 194.707 241.075 195.759C239.677 196.812 238.733 198.055 238.243 199.489L229.042 198.182C229.768 195.641 230.965 193.518 232.635 191.812C234.305 190.087 236.347 188.799 238.761 187.946C241.174 187.075 243.842 186.639 246.765 186.639C248.779 186.639 250.785 186.875 252.781 187.347C254.778 187.819 256.602 188.599 258.253 189.688C259.905 190.759 261.23 192.22 262.228 194.071C263.244 195.923 263.752 198.237 263.752 201.013V229H254.278V223.256H253.952C253.353 224.417 252.509 225.506 251.42 226.523C250.349 227.521 248.997 228.328 247.363 228.946C245.748 229.544 243.852 229.844 241.674 229.844ZM244.233 222.602C246.211 222.602 247.926 222.212 249.378 221.432C250.83 220.633 251.946 219.58 252.727 218.274C253.525 216.967 253.924 215.542 253.924 213.999V209.072C253.616 209.326 253.09 209.562 252.345 209.78C251.62 209.997 250.803 210.188 249.895 210.351C248.988 210.515 248.089 210.66 247.2 210.787C246.311 210.914 245.539 211.023 244.886 211.114C243.416 211.313 242.1 211.64 240.939 212.094C239.777 212.547 238.86 213.183 238.189 213.999C237.517 214.798 237.182 215.833 237.182 217.103C237.182 218.918 237.844 220.288 239.169 221.214C240.494 222.139 242.182 222.602 244.233 222.602ZM289.18 229.735C285.895 229.735 282.955 228.891 280.359 227.203C277.764 225.515 275.713 223.065 274.207 219.853C272.7 216.64 271.947 212.738 271.947 208.146C271.947 203.5 272.709 199.58 274.234 196.385C275.777 193.173 277.855 190.75 280.468 189.116C283.082 187.465 285.995 186.639 289.207 186.639C291.657 186.639 293.672 187.056 295.251 187.891C296.83 188.708 298.082 189.697 299.008 190.859C299.934 192.002 300.65 193.082 301.159 194.099H301.567V173.245H311.449V229H301.758V222.412H301.159C300.65 223.428 299.915 224.508 298.953 225.651C297.992 226.777 296.721 227.739 295.142 228.537C293.563 229.336 291.576 229.735 289.18 229.735ZM291.93 221.649C294.017 221.649 295.795 221.087 297.266 219.962C298.736 218.818 299.852 217.23 300.614 215.197C301.376 213.165 301.758 210.796 301.758 208.092C301.758 205.387 301.376 203.037 300.614 201.041C299.87 199.044 298.763 197.492 297.293 196.385C295.841 195.278 294.053 194.725 291.93 194.725C289.733 194.725 287.9 195.296 286.43 196.44C284.96 197.583 283.853 199.162 283.109 201.177C282.365 203.191 281.993 205.496 281.993 208.092C281.993 210.705 282.365 213.038 283.109 215.088C283.871 217.121 284.987 218.727 286.458 219.907C287.946 221.069 289.77 221.649 291.93 221.649ZM342.832 187.184V194.806H318.793V187.184H342.832ZM324.728 177.165H334.583V216.422C334.583 217.747 334.783 218.764 335.182 219.472C335.6 220.161 336.144 220.633 336.816 220.887C337.487 221.141 338.231 221.268 339.048 221.268C339.665 221.268 340.228 221.223 340.736 221.132C341.262 221.041 341.661 220.96 341.934 220.887L343.594 228.592C343.068 228.773 342.315 228.973 341.335 229.191C340.373 229.408 339.193 229.535 337.796 229.572C335.327 229.644 333.104 229.272 331.126 228.456C329.147 227.621 327.577 226.332 326.416 224.59C325.272 222.847 324.71 220.669 324.728 218.056V177.165ZM357.145 229.599C355.494 229.599 354.078 229.018 352.898 227.857C351.719 226.695 351.138 225.279 351.156 223.61C351.138 221.976 351.719 220.579 352.898 219.417C354.078 218.255 355.494 217.675 357.145 217.675C358.742 217.675 360.131 218.255 361.311 219.417C362.508 220.579 363.116 221.976 363.135 223.61C363.116 224.717 362.826 225.724 362.263 226.631C361.719 227.539 360.993 228.265 360.085 228.809C359.196 229.336 358.216 229.599 357.145 229.599ZM357.145 199.761C355.494 199.761 354.078 199.18 352.898 198.019C351.719 196.839 351.138 195.423 351.156 193.772C351.138 192.138 351.719 190.741 352.898 189.579C354.078 188.4 355.494 187.81 357.145 187.81C358.742 187.81 360.131 188.4 361.311 189.579C362.508 190.741 363.116 192.138 363.135 193.772C363.116 194.861 362.826 195.859 362.263 196.766C361.719 197.674 360.993 198.4 360.085 198.944C359.196 199.489 358.216 199.761 357.145 199.761ZM54.888 322V266.245H91.1507V274.711H64.9882V289.848H89.2722V298.315H64.9882V313.533H91.3685V322H54.888ZM101.019 322V280.184H110.875V322H101.019ZM105.974 274.249C104.413 274.249 103.07 273.731 101.945 272.697C100.82 271.644 100.257 270.383 100.257 268.913C100.257 267.424 100.82 266.163 101.945 265.129C103.07 264.076 104.413 263.55 105.974 263.55C107.553 263.55 108.896 264.076 110.003 265.129C111.129 266.163 111.691 267.424 111.691 268.913C111.691 270.383 111.129 271.644 110.003 272.697C108.896 273.731 107.553 274.249 105.974 274.249ZM130.864 297.498V322H121.009V280.184H130.428V287.289H130.919C131.88 284.948 133.414 283.087 135.519 281.708C137.643 280.329 140.266 279.639 143.387 279.639C146.273 279.639 148.787 280.256 150.928 281.49C153.088 282.724 154.758 284.512 155.938 286.853C157.135 289.195 157.725 292.035 157.707 295.375V322H147.852V296.899C147.852 294.104 147.126 291.917 145.674 290.338C144.24 288.759 142.253 287.97 139.712 287.97C137.988 287.97 136.454 288.351 135.111 289.113C133.786 289.857 132.743 290.937 131.98 292.353C131.236 293.768 130.864 295.484 130.864 297.498ZM188.906 280.184V287.806H164.187V280.184H188.906ZM170.366 322V276.236C170.366 273.423 170.947 271.082 172.109 269.212C173.289 267.343 174.868 265.945 176.846 265.02C178.824 264.094 181.02 263.631 183.434 263.631C185.14 263.631 186.656 263.767 187.981 264.04C189.305 264.312 190.286 264.557 190.921 264.775L188.961 272.397C188.543 272.27 188.017 272.143 187.382 272.016C186.746 271.871 186.039 271.798 185.258 271.798C183.425 271.798 182.127 272.243 181.365 273.132C180.621 274.004 180.249 275.256 180.249 276.889V322H170.366ZM223.277 304.413V280.184H233.132V322H223.576V314.568H223.141C222.197 316.909 220.645 318.824 218.485 320.312C216.344 321.8 213.703 322.544 210.563 322.544C207.823 322.544 205.4 321.936 203.294 320.72C201.207 319.486 199.574 317.699 198.394 315.357C197.214 312.998 196.624 310.148 196.624 306.809V280.184H206.479V305.284C206.479 307.934 207.205 310.039 208.657 311.6C210.109 313.161 212.015 313.942 214.374 313.942C215.826 313.942 217.233 313.588 218.594 312.88C219.955 312.172 221.072 311.119 221.943 309.722C222.832 308.306 223.277 306.537 223.277 304.413ZM206.779 274.031C205.345 274.031 204.102 273.523 203.049 272.506C202.015 271.49 201.497 270.292 201.497 268.913C201.497 267.461 202.015 266.245 203.049 265.265C204.102 264.266 205.345 263.767 206.779 263.767C208.249 263.767 209.483 264.266 210.481 265.265C211.498 266.245 212.006 267.461 212.006 268.913C212.006 270.292 211.498 271.49 210.481 272.506C209.483 273.523 208.249 274.031 206.779 274.031ZM223.113 274.031C221.68 274.031 220.436 273.523 219.384 272.506C218.349 271.49 217.832 270.292 217.832 268.913C217.832 267.461 218.349 266.245 219.384 265.265C220.436 264.266 221.68 263.767 223.113 263.767C224.584 263.767 225.818 264.266 226.816 265.265C227.832 266.245 228.341 267.461 228.341 268.913C228.341 270.292 227.832 271.49 226.816 272.506C225.818 273.523 224.584 274.031 223.113 274.031ZM253.121 297.498V322H243.266V266.245H252.904V287.289H253.394C254.374 284.93 255.889 283.069 257.94 281.708C260.009 280.329 262.641 279.639 265.835 279.639C268.739 279.639 271.271 280.247 273.431 281.463C275.59 282.679 277.26 284.458 278.44 286.799C279.638 289.14 280.237 291.999 280.237 295.375V322H270.382V296.899C270.382 294.086 269.656 291.899 268.204 290.338C266.77 288.759 264.755 287.97 262.16 287.97C260.417 287.97 258.857 288.351 257.477 289.113C256.116 289.857 255.045 290.937 254.265 292.353C253.503 293.768 253.121 295.484 253.121 297.498ZM290.282 322V280.184H299.838V287.153H300.274C301.036 284.739 302.343 282.879 304.194 281.572C306.063 280.247 308.196 279.585 310.592 279.585C311.136 279.585 311.744 279.612 312.416 279.666C313.105 279.703 313.677 279.766 314.131 279.857V288.923C313.714 288.777 313.051 288.65 312.144 288.541C311.254 288.414 310.392 288.351 309.557 288.351C307.76 288.351 306.145 288.741 304.711 289.521C303.296 290.284 302.179 291.345 301.363 292.707C300.546 294.068 300.138 295.638 300.138 297.416V322H290.282ZM347.331 304.413V280.184H357.186V322H347.63V314.568H347.195C346.251 316.909 344.699 318.824 342.539 320.312C340.398 321.8 337.757 322.544 334.617 322.544C331.877 322.544 329.454 321.936 327.348 320.72C325.261 319.486 323.628 317.699 322.448 315.357C321.268 312.998 320.678 310.148 320.678 306.809V280.184H330.534V305.284C330.534 307.934 331.26 310.039 332.712 311.6C334.163 313.161 336.069 313.942 338.429 313.942C339.881 313.942 341.287 313.588 342.648 312.88C344.01 312.172 345.126 311.119 345.997 309.722C346.886 308.306 347.331 306.537 347.331 304.413ZM377.176 297.498V322H367.32V280.184H376.74V287.289H377.23C378.192 284.948 379.726 283.087 381.831 281.708C383.954 280.329 386.577 279.639 389.699 279.639C392.584 279.639 395.098 280.256 397.24 281.49C399.4 282.724 401.069 284.512 402.249 286.853C403.447 289.195 404.037 292.035 404.019 295.375V322H394.163V296.899C394.163 294.104 393.437 291.917 391.986 290.338C390.552 288.759 388.564 287.97 386.023 287.97C384.299 287.97 382.766 288.351 381.422 289.113C380.098 289.857 379.054 290.937 378.292 292.353C377.548 293.768 377.176 295.484 377.176 297.498ZM432.223 338.552C428.684 338.552 425.644 338.071 423.103 337.109C420.562 336.166 418.52 334.895 416.977 333.298C415.435 331.701 414.364 329.931 413.765 327.989L422.64 325.839C423.039 326.655 423.62 327.463 424.382 328.262C425.145 329.078 426.17 329.75 427.459 330.276C428.765 330.821 430.408 331.093 432.386 331.093C435.181 331.093 437.495 330.412 439.328 329.051C441.162 327.708 442.078 325.494 442.078 322.408V314.486H441.588C441.08 315.502 440.336 316.546 439.356 317.617C438.394 318.688 437.114 319.586 435.517 320.312C433.938 321.038 431.951 321.401 429.555 321.401C426.343 321.401 423.43 320.648 420.816 319.141C418.221 317.617 416.152 315.348 414.609 312.335C413.084 309.304 412.322 305.511 412.322 300.956C412.322 296.364 413.084 292.489 414.609 289.331C416.152 286.155 418.23 283.75 420.843 282.116C423.457 280.465 426.37 279.639 429.582 279.639C432.032 279.639 434.047 280.056 435.626 280.891C437.223 281.708 438.494 282.697 439.437 283.859C440.381 285.002 441.098 286.082 441.588 287.099H442.133V280.184H451.852V322.681C451.852 326.256 450.999 329.214 449.293 331.556C447.587 333.897 445.254 335.648 442.296 336.81C439.338 337.972 435.98 338.552 432.223 338.552ZM432.305 313.669C434.392 313.669 436.17 313.161 437.641 312.145C439.111 311.128 440.227 309.667 440.989 307.762C441.751 305.856 442.133 303.569 442.133 300.901C442.133 298.27 441.751 295.965 440.989 293.986C440.245 292.008 439.138 290.474 437.668 289.385C436.216 288.278 434.428 287.725 432.305 287.725C430.109 287.725 428.275 288.296 426.805 289.44C425.335 290.583 424.228 292.153 423.484 294.15C422.74 296.128 422.368 298.378 422.368 300.901C422.368 303.46 422.74 305.702 423.484 307.626C424.246 309.531 425.362 311.02 426.833 312.09C428.321 313.143 430.145 313.669 432.305 313.669ZM496.486 322.735C493.201 322.735 490.261 321.891 487.665 320.203C485.07 318.515 483.019 316.065 481.512 312.853C480.006 309.64 479.253 305.738 479.253 301.146C479.253 296.5 480.015 292.58 481.54 289.385C483.082 286.173 485.161 283.75 487.774 282.116C490.388 280.465 493.301 279.639 496.513 279.639C498.963 279.639 500.978 280.056 502.557 280.891C504.136 281.708 505.388 282.697 506.314 283.859C507.239 285.002 507.956 286.082 508.465 287.099H508.873V266.245H518.755V322H509.063V315.412H508.465C507.956 316.428 507.221 317.508 506.259 318.651C505.297 319.777 504.027 320.739 502.448 321.537C500.869 322.336 498.882 322.735 496.486 322.735ZM499.235 314.649C501.323 314.649 503.101 314.087 504.571 312.962C506.042 311.818 507.158 310.23 507.92 308.197C508.682 306.165 509.063 303.796 509.063 301.092C509.063 298.387 508.682 296.037 507.92 294.041C507.176 292.044 506.069 290.492 504.599 289.385C503.147 288.278 501.359 287.725 499.235 287.725C497.039 287.725 495.206 288.296 493.736 289.44C492.266 290.583 491.159 292.162 490.415 294.177C489.671 296.191 489.299 298.496 489.299 301.092C489.299 303.705 489.671 306.038 490.415 308.088C491.177 310.121 492.293 311.727 493.763 312.907C495.252 314.069 497.076 314.649 499.235 314.649ZM547.77 322.817C543.577 322.817 539.956 321.946 536.907 320.203C533.876 318.443 531.544 315.956 529.91 312.744C528.277 309.513 527.46 305.711 527.46 301.337C527.46 297.035 528.277 293.26 529.91 290.011C531.562 286.745 533.867 284.204 536.825 282.389C539.784 280.556 543.259 279.639 547.252 279.639C549.829 279.639 552.262 280.056 554.548 280.891C556.853 281.708 558.886 282.979 560.647 284.703C562.425 286.427 563.823 288.623 564.839 291.291C565.855 293.941 566.364 297.099 566.364 300.765V303.787H532.088V297.144H556.917C556.899 295.257 556.49 293.578 555.692 292.108C554.893 290.62 553.777 289.449 552.343 288.596C550.928 287.743 549.276 287.316 547.388 287.316C545.374 287.316 543.604 287.806 542.08 288.786C540.555 289.748 539.366 291.019 538.513 292.598C537.678 294.159 537.252 295.874 537.234 297.743V303.542C537.234 305.974 537.678 308.061 538.568 309.804C539.457 311.528 540.7 312.853 542.297 313.778C543.895 314.686 545.764 315.139 547.906 315.139C549.339 315.139 550.637 314.94 551.799 314.541C552.96 314.123 553.968 313.515 554.821 312.717C555.674 311.918 556.318 310.929 556.754 309.749L565.955 310.784C565.375 313.216 564.267 315.339 562.634 317.154C561.019 318.951 558.95 320.348 556.427 321.347C553.904 322.327 551.018 322.817 547.77 322.817ZM574.701 322V280.184H584.257V287.153H584.692C585.455 284.739 586.761 282.879 588.613 281.572C590.482 280.247 592.615 279.585 595.01 279.585C595.555 279.585 596.163 279.612 596.834 279.666C597.524 279.703 598.096 279.766 598.55 279.857V288.923C598.132 288.777 597.47 288.65 596.562 288.541C595.673 288.414 594.811 288.351 593.976 288.351C592.179 288.351 590.564 288.741 589.13 289.521C587.714 290.284 586.598 291.345 585.781 292.707C584.965 294.068 584.556 295.638 584.556 297.416V322H574.701ZM54.888 415V359.245H64.9882V406.533H89.5445V415H54.888ZM109.908 415.844C107.258 415.844 104.872 415.372 102.748 414.428C100.643 413.466 98.9731 412.051 97.7389 410.181C96.5229 408.312 95.9149 406.007 95.9149 403.266C95.9149 400.907 96.3505 398.956 97.2217 397.413C98.0929 395.87 99.2817 394.636 100.788 393.711C102.294 392.785 103.991 392.086 105.879 391.614C107.785 391.124 109.754 390.77 111.787 390.553C114.237 390.299 116.224 390.072 117.749 389.872C119.273 389.654 120.38 389.328 121.07 388.892C121.778 388.438 122.132 387.739 122.132 386.796V386.632C122.132 384.581 121.524 382.993 120.308 381.868C119.092 380.743 117.34 380.18 115.054 380.18C112.64 380.18 110.725 380.707 109.309 381.759C107.912 382.812 106.968 384.055 106.478 385.489L97.2761 384.182C98.0021 381.641 99.2 379.518 100.87 377.812C102.539 376.087 104.581 374.799 106.995 373.946C109.409 373.075 112.077 372.639 114.999 372.639C117.014 372.639 119.019 372.875 121.016 373.347C123.012 373.819 124.836 374.599 126.488 375.688C128.139 376.759 129.464 378.22 130.463 380.071C131.479 381.923 131.987 384.237 131.987 387.013V415H122.513V409.256H122.186C121.587 410.417 120.743 411.506 119.654 412.523C118.584 413.521 117.232 414.328 115.598 414.946C113.983 415.544 112.086 415.844 109.908 415.844ZM112.467 408.602C114.446 408.602 116.161 408.212 117.613 407.432C119.065 406.633 120.181 405.58 120.961 404.274C121.76 402.967 122.159 401.542 122.159 399.999V395.072C121.851 395.326 121.324 395.562 120.58 395.78C119.854 395.997 119.037 396.188 118.13 396.351C117.222 396.515 116.324 396.66 115.435 396.787C114.545 396.914 113.774 397.023 113.121 397.114C111.651 397.313 110.335 397.64 109.173 398.094C108.012 398.547 107.095 399.183 106.423 399.999C105.752 400.798 105.416 401.833 105.416 403.103C105.416 404.918 106.079 406.288 107.404 407.214C108.728 408.139 110.416 408.602 112.467 408.602ZM168.549 397.413V373.184H178.404V415H168.849V407.568H168.413C167.469 409.909 165.918 411.824 163.758 413.312C161.616 414.8 158.975 415.544 155.836 415.544C153.095 415.544 150.672 414.936 148.567 413.72C146.479 412.486 144.846 410.699 143.666 408.357C142.487 405.998 141.897 403.148 141.897 399.809V373.184H151.752V398.284C151.752 400.934 152.478 403.039 153.93 404.6C155.382 406.161 157.287 406.942 159.647 406.942C161.099 406.942 162.505 406.588 163.867 405.88C165.228 405.172 166.344 404.119 167.215 402.722C168.105 401.306 168.549 399.537 168.549 397.413ZM209.42 373.184V380.806H185.381V373.184H209.42ZM191.316 363.165H201.171V402.422C201.171 403.747 201.37 404.764 201.77 405.472C202.187 406.161 202.732 406.633 203.403 406.887C204.075 407.141 204.819 407.268 205.635 407.268C206.253 407.268 206.815 407.223 207.323 407.132C207.85 407.041 208.249 406.96 208.521 406.887L210.182 414.592C209.656 414.773 208.902 414.973 207.922 415.191C206.96 415.408 205.781 415.535 204.383 415.572C201.915 415.644 199.692 415.272 197.713 414.456C195.735 413.621 194.165 412.332 193.003 410.59C191.86 408.847 191.297 406.669 191.316 404.056V363.165ZM235.398 431.552C231.859 431.552 228.819 431.071 226.278 430.109C223.737 429.166 221.696 427.895 220.153 426.298C218.61 424.701 217.539 422.931 216.94 420.989L225.815 418.839C226.215 419.655 226.796 420.463 227.558 421.262C228.32 422.078 229.346 422.75 230.634 423.276C231.941 423.821 233.583 424.093 235.562 424.093C238.357 424.093 240.671 423.412 242.504 422.051C244.337 420.708 245.254 418.494 245.254 415.408V407.486H244.764C244.255 408.502 243.511 409.546 242.531 410.617C241.569 411.688 240.29 412.586 238.693 413.312C237.114 414.038 235.126 414.401 232.73 414.401C229.518 414.401 226.605 413.648 223.991 412.141C221.396 410.617 219.327 408.348 217.784 405.335C216.26 402.304 215.497 398.511 215.497 393.956C215.497 389.364 216.26 385.489 217.784 382.331C219.327 379.155 221.405 376.75 224.019 375.116C226.632 373.465 229.545 372.639 232.758 372.639C235.208 372.639 237.222 373.056 238.801 373.891C240.399 374.708 241.669 375.697 242.613 376.859C243.557 378.002 244.274 379.082 244.764 380.099H245.308V373.184H255.027V415.681C255.027 419.256 254.174 422.214 252.468 424.556C250.762 426.897 248.43 428.648 245.471 429.81C242.513 430.972 239.155 431.552 235.398 431.552ZM235.48 406.669C237.567 406.669 239.346 406.161 240.816 405.145C242.286 404.128 243.402 402.667 244.165 400.762C244.927 398.856 245.308 396.569 245.308 393.901C245.308 391.27 244.927 388.965 244.165 386.986C243.42 385.008 242.313 383.474 240.843 382.385C239.391 381.278 237.604 380.725 235.48 380.725C233.284 380.725 231.451 381.296 229.981 382.44C228.511 383.583 227.404 385.153 226.659 387.15C225.915 389.128 225.543 391.378 225.543 393.901C225.543 396.46 225.915 398.702 226.659 400.626C227.422 402.531 228.538 404.02 230.008 405.09C231.496 406.143 233.32 406.669 235.48 406.669ZM283.64 415.817C279.447 415.817 275.826 414.946 272.777 413.203C269.746 411.443 267.414 408.956 265.781 405.744C264.147 402.513 263.33 398.711 263.33 394.337C263.33 390.035 264.147 386.26 265.781 383.011C267.432 379.745 269.737 377.204 272.696 375.389C275.654 373.556 279.13 372.639 283.123 372.639C285.7 372.639 288.132 373.056 290.419 373.891C292.724 374.708 294.756 375.979 296.517 377.703C298.296 379.427 299.693 381.623 300.709 384.291C301.726 386.941 302.234 390.099 302.234 393.765V396.787H267.959V390.144H292.787C292.769 388.257 292.361 386.578 291.562 385.108C290.763 383.62 289.647 382.449 288.213 381.596C286.798 380.743 285.146 380.316 283.259 380.316C281.244 380.316 279.474 380.806 277.95 381.786C276.425 382.748 275.237 384.019 274.384 385.598C273.549 387.159 273.122 388.874 273.104 390.743V396.542C273.104 398.974 273.549 401.061 274.438 402.804C275.327 404.528 276.571 405.853 278.168 406.778C279.765 407.686 281.634 408.139 283.776 408.139C285.21 408.139 286.507 407.94 287.669 407.541C288.831 407.123 289.838 406.515 290.691 405.717C291.544 404.918 292.188 403.929 292.624 402.749L301.826 403.784C301.245 406.216 300.138 408.339 298.504 410.154C296.889 411.951 294.82 413.348 292.297 414.347C289.774 415.327 286.889 415.817 283.64 415.817ZM343.622 384.237L334.638 385.217C334.384 384.309 333.939 383.456 333.304 382.658C332.687 381.859 331.852 381.215 330.799 380.725C329.746 380.235 328.458 379.99 326.933 379.99C324.882 379.99 323.158 380.434 321.761 381.324C320.381 382.213 319.701 383.365 319.719 384.781C319.701 385.997 320.145 386.986 321.053 387.749C321.978 388.511 323.503 389.137 325.626 389.627L332.759 391.152C336.716 392.005 339.656 393.357 341.58 395.208C343.522 397.059 344.502 399.482 344.52 402.477C344.502 405.109 343.731 407.432 342.206 409.446C340.7 411.443 338.603 413.004 335.917 414.129C333.231 415.254 330.146 415.817 326.661 415.817C321.543 415.817 317.423 414.746 314.301 412.604C311.179 410.444 309.319 407.441 308.72 403.593L318.33 402.667C318.766 404.555 319.691 405.98 321.107 406.942C322.523 407.904 324.365 408.385 326.634 408.385C328.975 408.385 330.853 407.904 332.269 406.942C333.703 405.98 334.42 404.791 334.42 403.375C334.42 402.177 333.957 401.188 333.031 400.408C332.124 399.627 330.708 399.028 328.784 398.611L321.652 397.114C317.641 396.279 314.673 394.872 312.749 392.894C310.825 390.897 309.873 388.375 309.891 385.326C309.873 382.748 310.571 380.516 311.987 378.628C313.421 376.723 315.408 375.253 317.949 374.218C320.508 373.165 323.458 372.639 326.797 372.639C331.697 372.639 335.554 373.683 338.367 375.77C341.199 377.857 342.95 380.679 343.622 384.237ZM371.159 415.817C366.966 415.817 363.346 414.946 360.296 413.203C357.266 411.443 354.933 408.956 353.3 405.744C351.666 402.513 350.85 398.711 350.85 394.337C350.85 390.035 351.666 386.26 353.3 383.011C354.951 379.745 357.256 377.204 360.215 375.389C363.173 373.556 366.649 372.639 370.642 372.639C373.219 372.639 375.651 373.056 377.938 373.891C380.243 374.708 382.276 375.979 384.036 377.703C385.815 379.427 387.212 381.623 388.229 384.291C389.245 386.941 389.753 390.099 389.753 393.765V396.787H355.478V390.144H380.306C380.288 388.257 379.88 386.578 379.081 385.108C378.283 383.62 377.166 382.449 375.733 381.596C374.317 380.743 372.665 380.316 370.778 380.316C368.763 380.316 366.994 380.806 365.469 381.786C363.945 382.748 362.756 384.019 361.903 385.598C361.068 387.159 360.641 388.874 360.623 390.743V396.542C360.623 398.974 361.068 401.061 361.957 402.804C362.846 404.528 364.09 405.853 365.687 406.778C367.284 407.686 369.153 408.139 371.295 408.139C372.729 408.139 374.027 407.94 375.188 407.541C376.35 407.123 377.357 406.515 378.21 405.717C379.063 404.918 379.707 403.929 380.143 402.749L389.345 403.784C388.764 406.216 387.657 408.339 386.023 410.154C384.408 411.951 382.339 413.348 379.816 414.347C377.294 415.327 374.408 415.817 371.159 415.817ZM418.972 373.184V380.806H394.933V373.184H418.972ZM400.867 363.165H410.723V402.422C410.723 403.747 410.922 404.764 411.322 405.472C411.739 406.161 412.283 406.633 412.955 406.887C413.627 407.141 414.371 407.268 415.187 407.268C415.804 407.268 416.367 407.223 416.875 407.132C417.402 407.041 417.801 406.96 418.073 406.887L419.734 414.592C419.208 414.773 418.454 414.973 417.474 415.191C416.512 415.408 415.333 415.535 413.935 415.572C411.467 415.644 409.243 415.272 407.265 414.456C405.287 413.621 403.717 412.332 402.555 410.59C401.412 408.847 400.849 406.669 400.867 404.056V363.165ZM426.669 415V408.738L448.231 381.705V381.351H427.377V373.184H460.291V379.908L439.764 406.479V406.833H460.999V415H426.669ZM487.577 415.817C483.384 415.817 479.763 414.946 476.714 413.203C473.683 411.443 471.351 408.956 469.718 405.744C468.084 402.513 467.267 398.711 467.267 394.337C467.267 390.035 468.084 386.26 469.718 383.011C471.369 379.745 473.674 377.204 476.633 375.389C479.591 373.556 483.067 372.639 487.059 372.639C489.637 372.639 492.069 373.056 494.356 373.891C496.661 374.708 498.693 375.979 500.454 377.703C502.232 379.427 503.63 381.623 504.646 384.291C505.663 386.941 506.171 390.099 506.171 393.765V396.787H471.896V390.144H496.724C496.706 388.257 496.298 386.578 495.499 385.108C494.7 383.62 493.584 382.449 492.15 381.596C490.735 380.743 489.083 380.316 487.196 380.316C485.181 380.316 483.411 380.806 481.887 381.786C480.362 382.748 479.173 384.019 478.32 385.598C477.486 387.159 477.059 388.874 477.041 390.743V396.542C477.041 398.974 477.486 401.061 478.375 402.804C479.264 404.528 480.507 405.853 482.105 406.778C483.702 407.686 485.571 408.139 487.713 408.139C489.147 408.139 490.444 407.94 491.606 407.541C492.767 407.123 493.775 406.515 494.628 405.717C495.481 404.918 496.125 403.929 496.561 402.749L505.762 403.784C505.182 406.216 504.075 408.339 502.441 410.154C500.826 411.951 498.757 413.348 496.234 414.347C493.711 415.327 490.825 415.817 487.577 415.817Z" fill="#F5F5F5"/>
</svg>
