<svg width="687" height="400" viewBox="0 0 687 400" fill="none" xmlns="http://www.w3.org/2000/svg">
<path d="M351.528 15.064C345.403 9.34243 335.403 13.6853 335.403 22.0666V103.815C335.403 109.108 331.112 113.398 325.82 113.398H15.9716C10.6791 113.398 6.38867 117.689 6.38867 122.981V383.858C6.38867 389.15 10.6791 393.441 15.9716 393.441H670.806C676.098 393.441 680.389 389.15 680.389 383.858V122.981C680.389 117.689 676.098 113.398 670.806 113.398H460.567C458.138 113.398 455.8 112.476 454.025 110.818L351.528 15.064Z" fill="#C19C8F" stroke="#303348" stroke-width="12.7773" stroke-linejoin="round"/>
<path d="M55.1907 230.297V174.542H65.2909V198.145H91.1267V174.542H101.254V230.297H91.1267V206.612H65.2909V230.297H55.1907ZM111.804 230.297V188.48H121.659V230.297H111.804ZM116.758 182.546C115.198 182.546 113.854 182.028 112.729 180.994C111.604 179.941 111.041 178.68 111.041 177.21C111.041 175.721 111.604 174.46 112.729 173.425C113.854 172.373 115.198 171.846 116.758 171.846C118.337 171.846 119.68 172.373 120.788 173.425C121.913 174.46 122.475 175.721 122.475 177.21C122.475 178.68 121.913 179.941 120.788 180.994C119.68 182.028 118.337 182.546 116.758 182.546ZM131.793 230.297V188.48H141.349V195.45H141.784C142.547 193.036 143.853 191.176 145.705 189.869C147.574 188.544 149.707 187.881 152.102 187.881C152.647 187.881 153.255 187.909 153.926 187.963C154.616 187.999 155.188 188.063 155.641 188.154V197.219C155.224 197.074 154.562 196.947 153.654 196.838C152.765 196.711 151.903 196.648 151.068 196.648C149.271 196.648 147.656 197.038 146.222 197.818C144.806 198.581 143.69 199.642 142.873 201.004C142.057 202.365 141.648 203.935 141.648 205.713V230.297H131.793ZM161.644 230.297V224.035L183.206 197.002V196.648H162.352V188.48H195.266V195.205L174.739 221.776V222.13H195.974V230.297H161.644ZM205.673 230.297V174.542H215.528V195.395H215.936C216.445 194.379 217.161 193.299 218.087 192.156C219.013 190.994 220.265 190.005 221.844 189.188C223.423 188.353 225.438 187.936 227.888 187.936C231.118 187.936 234.031 188.762 236.627 190.413C239.24 192.047 241.309 194.47 242.834 197.682C244.377 200.877 245.148 204.797 245.148 209.443C245.148 214.035 244.395 217.937 242.888 221.15C241.382 224.362 239.331 226.812 236.736 228.5C234.14 230.188 231.2 231.032 227.915 231.032C225.519 231.032 223.532 230.633 221.953 229.834C220.374 229.035 219.103 228.074 218.141 226.948C217.198 225.805 216.463 224.725 215.936 223.709H215.365V230.297H205.673ZM215.337 209.389C215.337 212.093 215.719 214.461 216.481 216.494C217.261 218.527 218.377 220.115 219.829 221.258C221.3 222.384 223.078 222.946 225.165 222.946C227.343 222.946 229.167 222.366 230.637 221.204C232.108 220.024 233.215 218.418 233.959 216.385C234.721 214.334 235.102 212.002 235.102 209.389C235.102 206.793 234.73 204.488 233.986 202.474C233.242 200.459 232.135 198.88 230.665 197.737C229.195 196.593 227.361 196.022 225.165 196.022C223.06 196.022 221.272 196.575 219.802 197.682C218.332 198.789 217.216 200.341 216.454 202.338C215.709 204.334 215.337 206.684 215.337 209.389ZM253.526 230.297V188.48H263.082V195.45H263.518C264.28 193.036 265.587 191.176 267.438 189.869C269.307 188.544 271.44 187.881 273.836 187.881C274.38 187.881 274.988 187.909 275.66 187.963C276.349 187.999 276.921 188.063 277.375 188.154V197.219C276.957 197.074 276.295 196.947 275.387 196.838C274.498 196.711 273.636 196.648 272.801 196.648C271.004 196.648 269.389 197.038 267.955 197.818C266.539 198.581 265.423 199.642 264.606 201.004C263.79 202.365 263.381 203.935 263.381 205.713V230.297H253.526ZM310.575 212.71V188.48H320.43V230.297H310.874V222.865H310.439C309.495 225.206 307.943 227.121 305.783 228.609C303.642 230.097 301.001 230.841 297.861 230.841C295.12 230.841 292.697 230.233 290.592 229.017C288.505 227.783 286.871 225.995 285.692 223.654C284.512 221.295 283.922 218.445 283.922 215.106V188.48H293.777V213.581C293.777 216.231 294.503 218.336 295.955 219.897C297.407 221.458 299.313 222.238 301.672 222.238C303.124 222.238 304.531 221.885 305.892 221.177C307.253 220.469 308.369 219.416 309.241 218.019C310.13 216.603 310.575 214.833 310.575 212.71ZM340.419 205.795V230.297H330.564V188.48H339.984V195.586H340.474C341.436 193.245 342.969 191.384 345.075 190.005C347.198 188.626 349.821 187.936 352.942 187.936C355.828 187.936 358.342 188.553 360.484 189.787C362.643 191.021 364.313 192.809 365.493 195.15C366.691 197.492 367.28 200.332 367.262 203.672V230.297H357.407V205.196C357.407 202.401 356.681 200.214 355.229 198.635C353.795 197.056 351.808 196.267 349.267 196.267C347.543 196.267 346.009 196.648 344.666 197.41C343.341 198.154 342.298 199.234 341.535 200.65C340.791 202.065 340.419 203.78 340.419 205.795ZM387.136 205.795V230.297H377.281V188.48H386.7V195.586H387.191C388.152 193.245 389.686 191.384 391.791 190.005C393.915 188.626 396.537 187.936 399.659 187.936C402.545 187.936 405.059 188.553 407.2 189.787C409.36 191.021 411.03 192.809 412.21 195.15C413.407 197.492 413.997 200.332 413.979 203.672V230.297H404.124V205.196C404.124 202.401 403.398 200.214 401.946 198.635C400.512 197.056 398.525 196.267 395.984 196.267C394.26 196.267 392.726 196.648 391.383 197.41C390.058 198.154 389.015 199.234 388.252 200.65C387.508 202.065 387.136 203.78 387.136 205.795ZM442.51 231.114C438.318 231.114 434.697 230.242 431.648 228.5C428.617 226.74 426.285 224.253 424.651 221.041C423.018 217.81 422.201 214.008 422.201 209.634C422.201 205.332 423.018 201.557 424.651 198.308C426.303 195.041 428.608 192.501 431.566 190.686C434.524 188.852 438 187.936 441.993 187.936C444.57 187.936 447.002 188.353 449.289 189.188C451.594 190.005 453.627 191.275 455.387 193C457.166 194.724 458.563 196.92 459.58 199.588C460.596 202.238 461.104 205.396 461.104 209.062V212.084H426.829V205.441H451.658C451.639 203.554 451.231 201.875 450.432 200.405C449.634 198.916 448.518 197.746 447.084 196.893C445.668 196.04 444.017 195.613 442.129 195.613C440.114 195.613 438.345 196.103 436.82 197.083C435.296 198.045 434.107 199.316 433.254 200.895C432.419 202.456 431.993 204.171 431.974 206.04V211.839C431.974 214.271 432.419 216.358 433.308 218.1C434.198 219.825 435.441 221.15 437.038 222.075C438.635 222.983 440.505 223.436 442.646 223.436C444.08 223.436 445.378 223.237 446.539 222.837C447.701 222.42 448.708 221.812 449.561 221.013C450.414 220.215 451.059 219.226 451.494 218.046L460.696 219.08C460.115 221.513 459.008 223.636 457.375 225.451C455.759 227.248 453.69 228.645 451.168 229.643C448.645 230.624 445.759 231.114 442.51 231.114ZM479.297 205.795V230.297H469.442V188.48H478.861V195.586H479.351C480.313 193.245 481.847 191.384 483.952 190.005C486.076 188.626 488.698 187.936 491.82 187.936C494.706 187.936 497.22 188.553 499.361 189.787C501.521 191.021 503.191 192.809 504.371 195.15C505.568 197.492 506.158 200.332 506.14 203.672V230.297H496.285V205.196C496.285 202.401 495.559 200.214 494.107 198.635C492.673 197.056 490.686 196.267 488.145 196.267C486.421 196.267 484.887 196.648 483.544 197.41C482.219 198.154 481.175 199.234 480.413 200.65C479.669 202.065 479.297 203.78 479.297 205.795ZM522.23 230.896C520.578 230.896 519.162 230.315 517.983 229.153C516.803 227.992 516.222 226.576 516.24 224.906C516.222 223.273 516.803 221.876 517.983 220.714C519.162 219.552 520.578 218.972 522.23 218.972C523.827 218.972 525.215 219.552 526.395 220.714C527.593 221.876 528.201 223.273 528.219 224.906C528.201 226.014 527.91 227.021 527.348 227.928C526.803 228.836 526.077 229.562 525.17 230.106C524.281 230.633 523.3 230.896 522.23 230.896ZM522.23 201.058C520.578 201.058 519.162 200.477 517.983 199.316C516.803 198.136 516.222 196.72 516.24 195.069C516.222 193.435 516.803 192.038 517.983 190.876C519.162 189.696 520.578 189.107 522.23 189.107C523.827 189.107 525.215 189.696 526.395 190.876C527.593 192.038 528.201 193.435 528.219 195.069C528.201 196.158 527.91 197.156 527.348 198.063C526.803 198.971 526.077 199.697 525.17 200.241C524.281 200.786 523.3 201.058 522.23 201.058ZM55.1907 323.297V267.542H76.0989C80.3822 267.542 83.9758 268.34 86.8797 269.937C89.8018 271.534 92.007 273.731 93.4952 276.526C95.0016 279.302 95.7549 282.46 95.7549 286C95.7549 289.575 95.0016 292.751 93.4952 295.528C91.9888 298.305 89.7655 300.492 86.8253 302.089C83.8851 303.668 80.2642 304.458 75.9628 304.458H62.1057V296.154H74.6016C77.1062 296.154 79.1571 295.719 80.7543 294.848C82.3514 293.976 83.5312 292.778 84.2934 291.254C85.0739 289.729 85.4641 287.978 85.4641 286C85.4641 284.021 85.0739 282.279 84.2934 280.773C83.5312 279.266 82.3424 278.096 80.7271 277.261C79.1299 276.408 77.0699 275.981 74.5472 275.981H65.2909V323.297H55.1907ZM125.273 281.48V289.103H100.553V281.48H125.273ZM106.733 323.297V277.533C106.733 274.72 107.314 272.378 108.475 270.509C109.655 268.64 111.234 267.242 113.212 266.317C115.191 265.391 117.387 264.928 119.801 264.928C121.507 264.928 123.022 265.064 124.347 265.336C125.672 265.609 126.652 265.854 127.287 266.071L125.327 273.694C124.91 273.567 124.383 273.44 123.748 273.313C123.113 273.168 122.405 273.095 121.625 273.095C119.792 273.095 118.494 273.54 117.732 274.429C116.987 275.301 116.615 276.553 116.615 278.186V323.297H106.733ZM142.846 267.542V323.297H132.991V267.542H142.846ZM165.013 324.141C162.364 324.141 159.977 323.669 157.853 322.725C155.748 321.763 154.078 320.348 152.844 318.478C151.628 316.609 151.02 314.304 151.02 311.563C151.02 309.204 151.456 307.253 152.327 305.71C153.198 304.167 154.387 302.933 155.893 302.008C157.4 301.082 159.097 300.383 160.984 299.911C162.89 299.421 164.859 299.067 166.892 298.849C169.342 298.595 171.329 298.369 172.854 298.169C174.378 297.951 175.486 297.624 176.175 297.189C176.883 296.735 177.237 296.036 177.237 295.093V294.929C177.237 292.878 176.629 291.29 175.413 290.165C174.197 289.04 172.446 288.477 170.159 288.477C167.745 288.477 165.83 289.003 164.414 290.056C163.017 291.109 162.073 292.352 161.583 293.786L152.381 292.479C153.107 289.938 154.305 287.815 155.975 286.109C157.645 284.384 159.686 283.096 162.1 282.243C164.514 281.372 167.182 280.936 170.104 280.936C172.119 280.936 174.124 281.172 176.121 281.644C178.117 282.116 179.941 282.896 181.593 283.985C183.245 285.056 184.569 286.517 185.568 288.368C186.584 290.219 187.092 292.533 187.092 295.31V323.297H177.618V317.553H177.291C176.693 318.714 175.849 319.803 174.76 320.819C173.689 321.818 172.337 322.625 170.703 323.242C169.088 323.841 167.191 324.141 165.013 324.141ZM167.572 316.899C169.551 316.899 171.266 316.509 172.718 315.729C174.17 314.93 175.286 313.877 176.066 312.571C176.865 311.264 177.264 309.839 177.264 308.296V303.369C176.956 303.623 176.429 303.859 175.685 304.077C174.959 304.294 174.143 304.485 173.235 304.648C172.328 304.812 171.429 304.957 170.54 305.084C169.651 305.211 168.879 305.32 168.226 305.411C166.756 305.61 165.44 305.937 164.278 306.391C163.117 306.844 162.2 307.48 161.529 308.296C160.857 309.095 160.521 310.129 160.521 311.4C160.521 313.215 161.184 314.585 162.509 315.511C163.834 316.436 165.522 316.899 167.572 316.899ZM206.857 298.795V323.297H197.002V281.48H206.421V288.586H206.911C207.873 286.245 209.407 284.384 211.512 283.005C213.636 281.626 216.258 280.936 219.38 280.936C222.266 280.936 224.78 281.553 226.921 282.787C229.081 284.021 230.751 285.809 231.931 288.15C233.128 290.492 233.718 293.332 233.7 296.672V323.297H223.845V298.196C223.845 295.401 223.119 293.214 221.667 291.635C220.233 290.056 218.246 289.267 215.705 289.267C213.981 289.267 212.447 289.648 211.104 290.41C209.779 291.154 208.736 292.234 207.973 293.65C207.229 295.065 206.857 296.78 206.857 298.795ZM243.174 323.297V317.035L264.736 290.002V289.648H243.882V281.48H276.796V288.205L256.269 314.776V315.13H277.504V323.297H243.174ZM304.082 324.114C299.889 324.114 296.268 323.242 293.219 321.5C290.188 319.74 287.856 317.253 286.223 314.041C284.589 310.81 283.772 307.008 283.772 302.634C283.772 298.332 284.589 294.557 286.223 291.308C287.874 288.041 290.179 285.501 293.138 283.686C296.096 281.852 299.572 280.936 303.564 280.936C306.142 280.936 308.574 281.353 310.861 282.188C313.165 283.005 315.198 284.275 316.959 286C318.737 287.724 320.135 289.92 321.151 292.588C322.168 295.238 322.676 298.396 322.676 302.062V305.084H288.4V298.441H313.229C313.211 296.554 312.803 294.875 312.004 293.405C311.205 291.916 310.089 290.746 308.655 289.893C307.24 289.04 305.588 288.613 303.701 288.613C301.686 288.613 299.916 289.103 298.392 290.083C296.867 291.045 295.678 292.316 294.825 293.895C293.991 295.456 293.564 297.171 293.546 299.04V304.839C293.546 307.271 293.991 309.358 294.88 311.1C295.769 312.825 297.012 314.15 298.61 315.075C300.207 315.983 302.076 316.436 304.218 316.436C305.652 316.436 306.949 316.237 308.111 315.837C309.272 315.42 310.28 314.812 311.133 314.013C311.986 313.215 312.63 312.226 313.066 311.046L322.267 312.08C321.687 314.513 320.58 316.636 318.946 318.451C317.331 320.248 315.262 321.645 312.739 322.643C310.216 323.624 307.33 324.114 304.082 324.114ZM340.868 298.795V323.297H331.013V281.48H340.433V288.586H340.923C341.885 286.245 343.418 284.384 345.524 283.005C347.647 281.626 350.27 280.936 353.392 280.936C356.277 280.936 358.791 281.553 360.933 282.787C363.093 284.021 364.762 285.809 365.942 288.15C367.14 290.492 367.73 293.332 367.712 296.672V323.297H357.856V298.196C357.856 295.401 357.13 293.214 355.678 291.635C354.245 290.056 352.257 289.267 349.716 289.267C347.992 289.267 346.458 289.648 345.115 290.41C343.791 291.154 342.747 292.234 341.985 293.65C341.241 295.065 340.868 296.78 340.868 298.795Z" fill="#F5F5F5"/>
</svg>
