<svg width="687" height="400" viewBox="0 0 687 400" fill="none" xmlns="http://www.w3.org/2000/svg">
<path d="M351.528 15.064C345.403 9.34243 335.403 13.6853 335.403 22.0666V103.815C335.403 109.108 331.112 113.398 325.82 113.398H15.9716C10.6791 113.398 6.38867 117.689 6.38867 122.981V383.858C6.38867 389.15 10.6791 393.441 15.9716 393.441H670.806C676.098 393.441 680.389 389.15 680.389 383.858V122.981C680.389 117.689 676.098 113.398 670.806 113.398H460.567C458.138 113.398 455.8 112.476 454.025 110.818L351.528 15.064Z" fill="#C19C8F" stroke="#303348" stroke-width="12.7773" stroke-linejoin="round"/>
<path d="M53.888 230V174.245H63.9882V199.863H64.6688L86.421 174.245H98.7535L77.1919 199.264L98.9441 230H86.8021L70.1681 206.097L63.9882 213.393V230H53.888ZM115.19 174.245V230H105.335V174.245H115.19ZM131.45 245.681C130.107 245.681 128.864 245.572 127.72 245.354C126.595 245.155 125.696 244.919 125.025 244.647L127.312 236.969C128.746 237.387 130.025 237.586 131.15 237.568C132.276 237.55 133.265 237.196 134.118 236.507C134.989 235.835 135.724 234.71 136.323 233.131L137.167 230.871L122.003 188.184H132.457L142.095 219.764H142.53L152.195 188.184H162.676L145.933 235.064C145.153 237.278 144.118 239.175 142.83 240.754C141.541 242.351 139.962 243.567 138.093 244.402C136.241 245.255 134.027 245.681 131.45 245.681ZM169.931 230V174.245H179.787V195.099H180.195C180.703 194.082 181.42 193.002 182.346 191.859C183.271 190.697 184.524 189.708 186.103 188.891C187.682 188.056 189.696 187.639 192.146 187.639C195.377 187.639 198.29 188.465 200.885 190.116C203.499 191.75 205.568 194.173 207.092 197.385C208.635 200.58 209.407 204.5 209.407 209.146C209.407 213.738 208.653 217.64 207.147 220.853C205.641 224.065 203.59 226.515 200.994 228.203C198.399 229.891 195.459 230.735 192.174 230.735C189.778 230.735 187.79 230.336 186.211 229.537C184.632 228.739 183.362 227.777 182.4 226.651C181.456 225.508 180.721 224.428 180.195 223.412H179.623V230H169.931ZM179.596 209.092C179.596 211.796 179.977 214.165 180.739 216.197C181.52 218.23 182.636 219.818 184.088 220.962C185.558 222.087 187.337 222.649 189.424 222.649C191.602 222.649 193.426 222.069 194.896 220.907C196.366 219.727 197.473 218.121 198.217 216.088C198.98 214.038 199.361 211.705 199.361 209.092C199.361 206.496 198.989 204.191 198.245 202.177C197.5 200.162 196.393 198.583 194.923 197.44C193.453 196.296 191.62 195.725 189.424 195.725C187.319 195.725 185.531 196.278 184.061 197.385C182.591 198.492 181.474 200.044 180.712 202.041C179.968 204.037 179.596 206.387 179.596 209.092ZM236.297 230.817C232.105 230.817 228.484 229.946 225.435 228.203C222.404 226.443 220.072 223.956 218.438 220.744C216.805 217.513 215.988 213.711 215.988 209.337C215.988 205.035 216.805 201.26 218.438 198.011C220.09 194.745 222.395 192.204 225.353 190.389C228.312 188.556 231.787 187.639 235.78 187.639C238.357 187.639 240.789 188.056 243.076 188.891C245.381 189.708 247.414 190.979 249.174 192.703C250.953 194.427 252.351 196.623 253.367 199.291C254.383 201.941 254.891 205.099 254.891 208.765V211.787H220.616V205.144H245.445C245.426 203.257 245.018 201.578 244.22 200.108C243.421 198.62 242.305 197.449 240.871 196.596C239.455 195.743 237.804 195.316 235.916 195.316C233.902 195.316 232.132 195.806 230.607 196.786C229.083 197.748 227.894 199.019 227.041 200.598C226.206 202.159 225.78 203.874 225.762 205.743V211.542C225.762 213.974 226.206 216.061 227.095 217.804C227.985 219.528 229.228 220.853 230.825 221.778C232.422 222.686 234.292 223.139 236.433 223.139C237.867 223.139 239.165 222.94 240.326 222.541C241.488 222.123 242.495 221.515 243.348 220.717C244.201 219.918 244.846 218.929 245.281 217.749L254.483 218.784C253.902 221.216 252.795 223.339 251.162 225.154C249.546 226.951 247.477 228.348 244.955 229.347C242.432 230.327 239.546 230.817 236.297 230.817ZM281.469 230.817C277.295 230.817 273.71 229.9 270.716 228.067C267.739 226.234 265.443 223.702 263.828 220.472C262.231 217.223 261.432 213.484 261.432 209.255C261.432 205.008 262.249 201.26 263.882 198.011C265.516 194.745 267.821 192.204 270.797 190.389C273.792 188.556 277.331 187.639 281.415 187.639C284.809 187.639 287.812 188.265 290.426 189.518C293.058 190.752 295.154 192.503 296.715 194.772C298.276 197.022 299.165 199.654 299.383 202.667H289.963C289.582 200.652 288.674 198.973 287.241 197.63C285.825 196.269 283.928 195.589 281.551 195.589C279.536 195.589 277.767 196.133 276.242 197.222C274.718 198.293 273.529 199.836 272.676 201.85C271.841 203.865 271.423 206.279 271.423 209.092C271.423 211.941 271.841 214.391 272.676 216.442C273.511 218.475 274.681 220.045 276.188 221.152C277.712 222.241 279.5 222.786 281.551 222.786C283.003 222.786 284.3 222.513 285.444 221.969C286.605 221.406 287.576 220.599 288.357 219.546C289.137 218.493 289.673 217.214 289.963 215.707H299.383C299.147 218.666 298.276 221.288 296.769 223.575C295.263 225.844 293.212 227.622 290.616 228.911C288.021 230.181 284.972 230.817 281.469 230.817ZM316.459 216.878L316.432 204.981H318.011L333.039 188.184H344.555L326.069 208.765H324.027L316.459 216.878ZM307.475 230V174.245H317.33V230H307.475ZM333.719 230L320.107 210.97L326.75 204.028L345.507 230H333.719ZM357.193 230.599C355.542 230.599 354.126 230.018 352.946 228.857C351.767 227.695 351.186 226.279 351.204 224.61C351.186 222.976 351.767 221.579 352.946 220.417C354.126 219.255 355.542 218.675 357.193 218.675C358.791 218.675 360.179 219.255 361.359 220.417C362.557 221.579 363.165 222.976 363.183 224.61C363.165 225.717 362.874 226.724 362.312 227.631C361.767 228.539 361.041 229.265 360.134 229.809C359.244 230.336 358.264 230.599 357.193 230.599ZM357.193 200.761C355.542 200.761 354.126 200.18 352.946 199.019C351.767 197.839 351.186 196.423 351.204 194.772C351.186 193.138 351.767 191.741 352.946 190.579C354.126 189.4 355.542 188.81 357.193 188.81C358.791 188.81 360.179 189.4 361.359 190.579C362.557 191.741 363.165 193.138 363.183 194.772C363.165 195.861 362.874 196.859 362.312 197.766C361.767 198.674 361.041 199.4 360.134 199.944C359.244 200.489 358.264 200.761 357.193 200.761ZM53.888 323V267.245H90.1507V275.711H63.9882V290.848H88.2722V299.315H63.9882V314.533H90.3685V323H53.888ZM137.371 281.184L122.479 323H111.59L96.6981 281.184H107.207L116.817 312.246H117.252L126.89 281.184H137.371ZM161.281 323.817C157.088 323.817 153.467 322.946 150.418 321.203C147.387 319.443 145.055 316.956 143.422 313.744C141.788 310.513 140.972 306.711 140.972 302.337C140.972 298.035 141.788 294.26 143.422 291.011C145.073 287.745 147.378 285.204 150.337 283.389C153.295 281.556 156.771 280.639 160.764 280.639C163.341 280.639 165.773 281.056 168.06 281.891C170.365 282.708 172.397 283.979 174.158 285.703C175.937 287.427 177.334 289.623 178.35 292.291C179.367 294.941 179.875 298.099 179.875 301.765V304.787H145.6V298.144H170.428C170.41 296.257 170.002 294.578 169.203 293.108C168.405 291.62 167.288 290.449 165.855 289.596C164.439 288.743 162.787 288.316 160.9 288.316C158.885 288.316 157.116 288.806 155.591 289.786C154.066 290.748 152.878 292.019 152.025 293.598C151.19 295.159 150.763 296.874 150.745 298.743V304.542C150.745 306.974 151.19 309.061 152.079 310.804C152.968 312.528 154.212 313.853 155.809 314.778C157.406 315.686 159.275 316.139 161.417 316.139C162.851 316.139 164.148 315.94 165.31 315.541C166.472 315.123 167.479 314.515 168.332 313.717C169.185 312.918 169.829 311.929 170.265 310.749L179.467 311.784C178.886 314.216 177.779 316.339 176.145 318.154C174.53 319.951 172.461 321.348 169.938 322.347C167.415 323.327 164.53 323.817 161.281 323.817ZM198.068 298.498V323H188.212V281.184H197.632V288.289H198.122C199.084 285.948 200.618 284.087 202.723 282.708C204.846 281.329 207.469 280.639 210.591 280.639C213.477 280.639 215.99 281.256 218.132 282.49C220.292 283.724 221.961 285.512 223.141 287.853C224.339 290.195 224.929 293.035 224.911 296.375V323H215.056V297.899C215.056 295.104 214.33 292.917 212.878 291.338C211.444 289.759 209.456 288.97 206.916 288.97C205.191 288.97 203.658 289.351 202.315 290.113C200.99 290.857 199.946 291.937 199.184 293.353C198.44 294.768 198.068 296.484 198.068 298.498ZM255.81 281.184V288.806H231.771V281.184H255.81ZM237.706 271.165H247.561V310.422C247.561 311.747 247.761 312.764 248.16 313.472C248.578 314.161 249.122 314.633 249.794 314.887C250.465 315.141 251.209 315.268 252.026 315.268C252.643 315.268 253.206 315.223 253.714 315.132C254.24 315.041 254.64 314.96 254.912 314.887L256.573 322.592C256.046 322.773 255.293 322.973 254.313 323.191C253.351 323.408 252.171 323.535 250.774 323.572C248.305 323.644 246.082 323.272 244.104 322.456C242.126 321.621 240.556 320.332 239.394 318.59C238.251 316.847 237.688 314.669 237.706 312.056V271.165ZM296.504 292.237L287.52 293.217C287.266 292.309 286.821 291.456 286.186 290.658C285.569 289.859 284.734 289.215 283.681 288.725C282.628 288.235 281.34 287.99 279.815 287.99C277.764 287.99 276.04 288.434 274.643 289.324C273.263 290.213 272.583 291.365 272.601 292.781C272.583 293.997 273.027 294.986 273.935 295.749C274.86 296.511 276.385 297.137 278.508 297.627L285.641 299.152C289.598 300.005 292.538 301.357 294.462 303.208C296.404 305.059 297.384 307.482 297.402 310.477C297.384 313.109 296.613 315.432 295.088 317.446C293.582 319.443 291.485 321.004 288.799 322.129C286.113 323.254 283.028 323.817 279.543 323.817C274.425 323.817 270.305 322.746 267.183 320.604C264.061 318.444 262.201 315.441 261.602 311.593L271.212 310.667C271.648 312.555 272.574 313.98 273.989 314.942C275.405 315.904 277.247 316.385 279.516 316.385C281.857 316.385 283.736 315.904 285.151 314.942C286.585 313.98 287.302 312.791 287.302 311.375C287.302 310.177 286.839 309.188 285.913 308.408C285.006 307.627 283.59 307.028 281.667 306.611L274.534 305.114C270.523 304.279 267.555 302.872 265.631 300.894C263.708 298.897 262.755 296.375 262.773 293.326C262.755 290.748 263.453 288.516 264.869 286.628C266.303 284.723 268.29 283.253 270.831 282.218C273.39 281.165 276.34 280.639 279.679 280.639C284.58 280.639 288.436 281.683 291.249 283.77C294.081 285.857 295.832 288.679 296.504 292.237ZM324.545 323V281.184H334.4V323H324.545ZM329.5 275.249C327.939 275.249 326.596 274.731 325.47 273.697C324.345 272.644 323.782 271.383 323.782 269.913C323.782 268.424 324.345 267.163 325.47 266.129C326.596 265.076 327.939 264.55 329.5 264.55C331.079 264.55 332.422 265.076 333.529 266.129C334.654 267.163 335.217 268.424 335.217 269.913C335.217 271.383 334.654 272.644 333.529 273.697C332.422 274.731 331.079 275.249 329.5 275.249ZM354.389 298.498V323H344.534V281.184H353.954V288.289H354.444C355.406 285.948 356.939 284.087 359.045 282.708C361.168 281.329 363.791 280.639 366.912 280.639C369.798 280.639 372.312 281.256 374.454 282.49C376.613 283.724 378.283 285.512 379.463 287.853C380.661 290.195 381.251 293.035 381.232 296.375V323H371.377V297.899C371.377 295.104 370.651 292.917 369.199 291.338C367.766 289.759 365.778 288.97 363.237 288.97C361.513 288.97 359.979 289.351 358.636 290.113C357.311 290.857 356.268 291.937 355.506 293.353C354.761 294.768 354.389 296.484 354.389 298.498ZM410.703 323V267.245H432.047C436.076 267.245 439.424 267.88 442.092 269.15C444.778 270.403 446.784 272.118 448.109 274.296C449.452 276.474 450.123 278.942 450.123 281.701C450.123 283.969 449.688 285.911 448.817 287.527C447.945 289.124 446.775 290.422 445.305 291.42C443.835 292.418 442.192 293.135 440.377 293.571V294.115C442.355 294.224 444.252 294.832 446.067 295.939C447.9 297.028 449.397 298.571 450.559 300.567C451.721 302.564 452.301 304.978 452.301 307.809C452.301 310.695 451.603 313.29 450.205 315.595C448.808 317.882 446.702 319.688 443.889 321.013C441.076 322.338 437.537 323 433.272 323H410.703ZM420.803 314.56H431.665C435.332 314.56 437.972 313.862 439.588 312.464C441.221 311.049 442.038 309.234 442.038 307.019C442.038 305.368 441.629 303.879 440.813 302.555C439.996 301.212 438.834 300.159 437.328 299.397C435.822 298.616 434.025 298.226 431.938 298.226H420.803V314.56ZM420.803 290.957H430.794C432.537 290.957 434.106 290.639 435.504 290.004C436.902 289.351 438 288.434 438.798 287.255C439.615 286.057 440.023 284.641 440.023 283.008C440.023 280.848 439.261 279.069 437.736 277.672C436.23 276.274 433.989 275.575 431.012 275.575H420.803V290.957ZM472.686 323.844C470.036 323.844 467.649 323.372 465.526 322.428C463.42 321.466 461.75 320.051 460.516 318.181C459.3 316.312 458.692 314.007 458.692 311.266C458.692 308.907 459.128 306.956 459.999 305.413C460.87 303.87 462.059 302.636 463.565 301.711C465.072 300.785 466.769 300.086 468.656 299.614C470.562 299.124 472.531 298.77 474.564 298.553C477.014 298.299 479.002 298.072 480.526 297.872C482.051 297.654 483.158 297.328 483.847 296.892C484.555 296.438 484.909 295.739 484.909 294.796V294.632C484.909 292.581 484.301 290.993 483.085 289.868C481.869 288.743 480.118 288.18 477.831 288.18C475.417 288.18 473.502 288.707 472.087 289.759C470.689 290.812 469.745 292.055 469.255 293.489L460.053 292.182C460.779 289.641 461.977 287.518 463.647 285.812C465.317 284.087 467.359 282.799 469.773 281.946C472.186 281.075 474.854 280.639 477.776 280.639C479.791 280.639 481.797 280.875 483.793 281.347C485.789 281.819 487.613 282.599 489.265 283.688C490.917 284.759 492.242 286.22 493.24 288.071C494.256 289.923 494.764 292.237 494.764 295.013V323H485.29V317.256H484.964C484.365 318.417 483.521 319.506 482.432 320.523C481.361 321.521 480.009 322.328 478.375 322.946C476.76 323.544 474.863 323.844 472.686 323.844ZM475.245 316.602C477.223 316.602 478.938 316.212 480.39 315.432C481.842 314.633 482.958 313.58 483.739 312.274C484.537 310.967 484.936 309.542 484.936 307.999V303.072C484.628 303.326 484.102 303.562 483.357 303.78C482.631 303.997 481.815 304.188 480.907 304.351C480 304.515 479.101 304.66 478.212 304.787C477.323 304.914 476.551 305.023 475.898 305.114C474.428 305.313 473.112 305.64 471.95 306.094C470.789 306.547 469.872 307.183 469.201 307.999C468.529 308.798 468.194 309.833 468.194 311.103C468.194 312.918 468.856 314.288 470.181 315.214C471.506 316.139 473.194 316.602 475.245 316.602ZM537.724 292.237L528.74 293.217C528.486 292.309 528.041 291.456 527.406 290.658C526.789 289.859 525.954 289.215 524.902 288.725C523.849 288.235 522.56 287.99 521.036 287.99C518.985 287.99 517.261 288.434 515.863 289.324C514.484 290.213 513.803 291.365 513.821 292.781C513.803 293.997 514.248 294.986 515.155 295.749C516.081 296.511 517.606 297.137 519.729 297.627L526.862 299.152C530.818 300.005 533.759 301.357 535.682 303.208C537.624 305.059 538.605 307.482 538.623 310.477C538.605 313.109 537.833 315.432 536.309 317.446C534.802 319.443 532.706 321.004 530.02 322.129C527.334 323.254 524.248 323.817 520.764 323.817C515.645 323.817 511.525 322.746 508.404 320.604C505.282 318.444 503.422 315.441 502.823 311.593L512.433 310.667C512.869 312.555 513.794 313.98 515.21 314.942C516.625 315.904 518.468 316.385 520.736 316.385C523.078 316.385 524.956 315.904 526.372 314.942C527.806 313.98 528.522 312.791 528.522 311.375C528.522 310.177 528.06 309.188 527.134 308.408C526.227 307.627 524.811 307.028 522.887 306.611L515.754 305.114C511.743 304.279 508.776 302.872 506.852 300.894C504.928 298.897 503.975 296.375 503.993 293.326C503.975 290.748 504.674 288.516 506.09 286.628C507.523 284.723 509.511 283.253 512.052 282.218C514.611 281.165 517.56 280.639 520.9 280.639C525.8 280.639 529.657 281.683 532.47 283.77C535.301 285.857 537.053 288.679 537.724 292.237ZM565.262 323.817C561.069 323.817 557.448 322.946 554.399 321.203C551.368 319.443 549.036 316.956 547.402 313.744C545.769 310.513 544.952 306.711 544.952 302.337C544.952 298.035 545.769 294.26 547.402 291.011C549.054 287.745 551.359 285.204 554.317 283.389C557.276 281.556 560.751 280.639 564.744 280.639C567.322 280.639 569.754 281.056 572.04 281.891C574.345 282.708 576.378 283.979 578.139 285.703C579.917 287.427 581.315 289.623 582.331 292.291C583.348 294.941 583.856 298.099 583.856 301.765V304.787H549.58V298.144H574.409C574.391 296.257 573.982 294.578 573.184 293.108C572.385 291.62 571.269 290.449 569.835 289.596C568.42 288.743 566.768 288.316 564.88 288.316C562.866 288.316 561.096 288.806 559.572 289.786C558.047 290.748 556.858 292.019 556.005 293.598C555.17 295.159 554.744 296.874 554.726 298.743V304.542C554.726 306.974 555.17 309.061 556.06 310.804C556.949 312.528 558.192 313.853 559.79 314.778C561.387 315.686 563.256 316.139 565.398 316.139C566.832 316.139 568.129 315.94 569.291 315.541C570.452 315.123 571.46 314.515 572.313 313.717C573.166 312.918 573.81 311.929 574.246 310.749L583.447 311.784C582.867 314.216 581.76 316.339 580.126 318.154C578.511 319.951 576.442 321.348 573.919 322.347C571.396 323.327 568.51 323.817 565.262 323.817ZM602.048 267.245V323H592.193V267.245H602.048Z" fill="#F5F5F5"/>
</svg>
