<svg width="147" height="146" viewBox="0 0 147 146" fill="none" xmlns="http://www.w3.org/2000/svg">
<path d="M3.50781 30.0117C3.50781 14.5477 16.0438 2.01172 31.5078 2.01172H115.508C130.972 2.01172 143.508 14.5477 143.508 30.0117V114.012C143.508 129.476 130.972 142.012 115.508 142.012H31.5078C16.0438 142.012 3.50781 129.476 3.50781 114.012V30.0117Z" fill="#E82929"/>
<path d="M31.5078 0.0117188C31.5078 1.34505 31.5078 2.67839 31.5078 4.01172C40.0401 4.01172 48.5724 4.01172 57.1046 4.01172C76.5723 4.01172 96.0401 4.01172 115.508 4.01172C129.355 3.6724 141.847 16.1646 141.508 30.0117C141.508 30.0117 141.508 30.0117 141.508 30.0117C141.508 58.0117 140.862 86.0117 140.418 114.012C140.474 127.285 128.52 138.826 115.508 138.512C115.508 138.512 115.508 138.512 115.508 138.512C87.5078 138.512 59.5078 138.512 31.5078 138.512C18.4613 138.834 6.686 127.058 7.00781 114.012C7.00781 114.012 7.00781 114.012 7.00781 114.012C7.00781 86.0117 6.79243 58.0117 6.36166 30.0117C6.25101 24.4919 8.00992 18.9524 11.3403 14.4698C15.9339 8.19015 23.5515 4.15898 31.5078 4.01172C31.5078 2.67839 31.5078 1.34505 31.5078 0.0117188C22.3486 -0.259072 13.0986 4.0527 7.31891 11.3658C3.12731 16.5754 0.725059 23.2595 0.65397 30.0117C0.223198 58.0117 0.0078125 86.0117 0.0078125 114.012C0.0078125 114.012 0.0078125 114.012 0.0078125 114.012C-0.395666 130.794 14.7253 145.915 31.5078 145.512C59.5078 145.512 87.5078 145.512 115.508 145.512C115.508 145.512 115.508 145.512 115.508 145.512C132.325 145.922 147.267 130.567 146.598 114.012C146.154 86.0117 145.508 58.0117 145.508 30.0117C145.508 30.0117 145.508 30.0117 145.508 30.0117C145.894 14.0298 131.49 -0.37426 115.508 0.0117188C96.0401 0.0117188 76.5723 0.0117188 57.1046 0.0117188C48.5724 0.0117188 40.0401 0.0117188 31.5078 0.0117188ZM31.5078 4.01172V0.0117188V4.01172Z" fill="#8D2323"/>
<path d="M43.5078 102.669L72.5078 72.3404M102.508 42.0117L72.5078 72.3404M72.5078 72.3404L43.5078 42.0117M72.5078 72.3404L102.508 102.669" stroke="white" stroke-width="16.2759" stroke-linecap="round"/>
</svg>
